<?xml version="1.0" encoding="UTF-8" standalone="no"?>
<!-- Generator: Adobe Illustrator 19.2.0, SVG Export Plug-In . SVG Version: 6.00 Build 0)  -->

<svg
   xmlns:dc="http://purl.org/dc/elements/1.1/"
   xmlns:cc="http://creativecommons.org/ns#"
   xmlns:rdf="http://www.w3.org/1999/02/22-rdf-syntax-ns#"
   xmlns:svg="http://www.w3.org/2000/svg"
   xmlns="http://www.w3.org/2000/svg"
   xmlns:sodipodi="http://sodipodi.sourceforge.net/DTD/sodipodi-0.dtd"
   xmlns:inkscape="http://www.inkscape.org/namespaces/inkscape"
   version="1.1"
   id="Layer_1"
   x="0px"
   y="0px"
   viewBox="0 0 512 512"
   style="enable-background:new 0 0 512 512"
   xml:space="preserve"
   sodipodi:docname="bash.svg"
   inkscape:version="0.92.2 5c3e80d, 2017-08-06"><metadata
     id="metadata62"><rdf:RDF><cc:Work
         rdf:about=""><dc:format>image/svg+xml</dc:format><dc:type
           rdf:resource="http://purl.org/dc/dcmitype/StillImage" /></cc:Work></rdf:RDF></metadata><defs
     id="defs60"><linearGradient
       id="SVGID_1_"
       gradientUnits="userSpaceOnUse"
       x1="0"
       y1="0"
       x2="0.70709997"
       y2="0.70709997"><stop
         offset="0"
         style="stop-color:#E6E6EA"
         id="stop4" /><stop
         offset="0.1719"
         style="stop-color:#E2E2E6"
         id="stop6" /><stop
         offset="0.3482"
         style="stop-color:#D7D6DA"
         id="stop8" /><stop
         offset="0.5264"
         style="stop-color:#C4C2C5"
         id="stop10" /><stop
         offset="0.7061"
         style="stop-color:#A9A7A8"
         id="stop12" /><stop
         offset="0.8852"
         style="stop-color:#878484"
         id="stop14" /><stop
         offset="1"
         style="stop-color:#6D6968"
         id="stop16" /></linearGradient></defs><sodipodi:namedview
     pagecolor="#ffffff"
     bordercolor="#666666"
     borderopacity="1"
     objecttolerance="10"
     gridtolerance="10"
     guidetolerance="10"
     inkscape:pageopacity="0"
     inkscape:pageshadow="2"
     inkscape:window-width="1366"
     inkscape:window-height="739"
     id="namedview58"
     showgrid="false"
     inkscape:zoom="0.65186406"
     inkscape:cx="-143.85607"
     inkscape:cy="141.62272"
     inkscape:window-x="0"
     inkscape:window-y="0"
     inkscape:window-maximized="1"
     inkscape:current-layer="Layer_1" /><path
     style="fill:#283037"
     d="m 256.30078,1.3007812 c -10.8,0 -21.50117,2.8996094 -31.20117,8.5996094 l -161.59961,95.9999994 c -19.3,11.4 -31.199219,32.6 -31.199219,55.5 v 191.90039 c 0,22.9 11.899219,44.1 31.199219,55.5 l 161.59961,95.89844 c 9.6,5.7 20.40117,8.60156 31.20117,8.60156 c 10.8,0 21.49922,-2.90156 31.19922,-8.60156 l 161.59961,-95.89844 c 19.3,-11.5 31.20117,-32.6 31.20117,-55.5 v -191.90039 c 0,-22.9 -11.90117,-44.1 -31.20117,-55.5 l -161.59961,-95.9999994 c -9.6,-5.7 -20.39922,-8.5996094 -31.19922,-8.5996094 z m 0,11.4999998 c 8.9,0 17.8,2.4 25.5,7 l 161.59961,95.898439 c 13.3,7.9 22.29883,21.6 24.79883,37 c -5.4,-11.4 -17.4,-14.59883 -31.5,-6.29883 l -152.89844,94.5 c -19.1,11.1 -33.10156,23.69961 -33.10156,46.59961 v 188.40039 c 0,13.8 5.50156,22.69883 14.10156,25.29883 c -2.8,0.5 -5.6,0.80078 -8.5,0.80078 c -8.9,-0.1 -17.8,-2.49961 -25.5,-7.09961 l -161.601561,-95.90039 c -15.8,-9.4 -25.59961,-26.89922 -25.59961,-45.69922 v -191.90039 c 0,-18.8 9.79961,-36.30117 25.59961,-45.70117 l 161.601561,-95.898439 c 7.8,-4.6 16.6,-7 25.5,-7 z m 65.72266,270.162109 c 0.85781,0.0375 1.47656,0.86172 1.47656,2.13672 l 0.0996,13.90039 c 5.8,-2.3 10.9,-2.90039 15.5,-1.90039 c 1,0.3 1.4,1.60117 1,3.20117 l -3.09961,12.29883 c -0.2,0.9 -0.80039,1.9 -1.40039,2.5 c -0.3,0.3 -0.49883,0.49961 -0.79883,0.59961 c -0.4,0.2 -0.80117,0.30117 -1.20117,0.20117 c -2.1,-0.5 -7.10039,-1.59961 -14.90039,2.40039 c -8.2,4.2 -11.1,11.29961 -11,16.59961 c 0.1,6.3 3.3,8.30039 14.5,8.40039 c 14.9,0.2 21.4,6.79883 21.5,21.79883 c 0.2,14.8 -7.69883,30.60039 -19.79883,40.40039 l 0.29883,13.80078 c 0,1.7 -1.09844,3.59922 -2.39844,4.19922 l -8.20117,4.69922 c -1.3,0.7 -2.40039,-0.0988 -2.40039,-1.79883 l -0.0996,-13.59961 c -7,2.9 -14.09961,3.59883 -18.59961,1.79883 c -0.9,-0.3 -1.20039,-1.6 -0.90039,-3 l 3,-12.5 c 0.2,-1 0.8,-1.99961 1.5,-2.59961 c 0.3,-0.2 0.50078,-0.39961 0.80078,-0.59961 c 0.5,-0.2 0.89883,-0.29961 1.29883,-0.0996 c 4.9,1.6 11.10156,0.89883 17.10156,-2.20117 c 7.6,-3.9 12.69961,-11.60039 12.59961,-19.40039 c -0.1,-7 -3.89961,-9.9 -13.09961,-10 c -11.7,0 -22.70039,-2.29961 -22.90039,-19.59961 c -0.1,-14.2 7.3,-29.00039 19,-38.40039 l -0.0996,-13.89844 c 0,-1.7 0.99844,-3.60078 2.39844,-4.30078 l 7.90039,-4.80078 c 0.325,-0.175 0.63789,-0.24883 0.92383,-0.23633 z m 85.49414,88.58789 c 0.67031,-0.0516 1.15703,0.47422 1.08203,1.44922 v 9.30078 c 0,1.3 -0.0992,2.49961 -1.19922,3.09961 l -40.90039,24.79883 c -1,0.6 -1.90039,0.10078 -1.90039,-1.19922 v -10.5 c 0,-1.3 0.80039,-1.99961 1.90039,-2.59961 l 40.30078,-24.09961 c 0.25,-0.15 0.49336,-0.23281 0.7168,-0.25 z"
     id="path25"
     inkscape:connector-curvature="0" /></svg>