<?xml version="1.0" encoding="UTF-8" standalone="no"?>
<!-- Created with Inkscape (http://www.inkscape.org/) -->

<svg
   xmlns:dc="http://purl.org/dc/elements/1.1/"
   xmlns:cc="http://creativecommons.org/ns#"
   xmlns:rdf="http://www.w3.org/1999/02/22-rdf-syntax-ns#"
   xmlns:svg="http://www.w3.org/2000/svg"
   xmlns="http://www.w3.org/2000/svg"
   xmlns:sodipodi="http://sodipodi.sourceforge.net/DTD/sodipodi-0.dtd"
   xmlns:inkscape="http://www.inkscape.org/namespaces/inkscape"
   version="1.1"
   id="svg2"
   xml:space="preserve"
   width="192.2"
   height="192.2"
   viewBox="0 0 192.2 192.2"
   sodipodi:docname="docker.svg"
   inkscape:version="0.92.2 5c3e80d, 2017-08-06"><metadata
     id="metadata8"><rdf:RDF><cc:Work
         rdf:about=""><dc:format>image/svg+xml</dc:format><dc:type
           rdf:resource="http://purl.org/dc/dcmitype/StillImage" /><dc:title></dc:title></cc:Work></rdf:RDF></metadata><defs
     id="defs6"><clipPath
       clipPathUnits="userSpaceOnUse"
       id="clipPath40"><path
         d="m 379.219,195.961 c -110.383,-38.289 -229.231,-43.828 -254.071,-42.723 c 82.805,-69.0427 230.332,-199.3474 473.536,-124.9528 c -44.414,12.0703 -149.18,52.4531 -219.465,167.6758"
         id="path38"
         inkscape:connector-curvature="0"
         style="clip-rule:evenodd" /></clipPath><clipPath
       clipPathUnits="userSpaceOnUse"
       id="clipPath46"><path
         d="m 0,0 h 2007.13 v 1532.03 h -2007.13 z"
         id="path44"
         inkscape:connector-curvature="0" /></clipPath></defs><sodipodi:namedview
     pagecolor="#ffffff"
     bordercolor="#666666"
     borderopacity="1"
     objecttolerance="10"
     gridtolerance="10"
     guidetolerance="10"
     inkscape:pageopacity="0"
     inkscape:pageshadow="2"
     inkscape:window-width="1366"
     inkscape:window-height="739"
     id="namedview4"
     showgrid="false"
     inkscape:zoom="1.7622461"
     inkscape:cx="185.78729"
     inkscape:cy="91.557459"
     inkscape:window-x="0"
     inkscape:window-y="0"
     inkscape:window-maximized="1"
     inkscape:current-layer="g10" /><g
     id="g10"
     inkscape:groupmode="layer"
     inkscape:label="ink_ext_XXXXXX"
     transform="matrix(1.3333333,0,0,-1.3333333,0,192.2)"><path
       style="fill:#099cec;fill-opacity:1;fill-rule:evenodd;stroke:none;stroke-width:0.13333333"
       d="m 85.417969,3.6113281 v 18.0410159 h 19.841801 v -18.0410159 z m -46.904297,21.6484379 v 18.039062 h 19.84375 v -18.039062 z m 23.453125,0 v 18.039062 h 19.841797 v -18.039062 z m 23.451172,0 v 18.039062 h 19.841801 v -18.039062 z m 65.414061,3.607422 l -1.80469,2.724609 c -3.544,5.3808 -5.03714,12.549559 -4.50781,19.068359 c 0.416,4.015067 1.81315,8.530154 4.50781,11.804688 c -2.064,1.604666 -8.48472,4.706082 -17.13672,4.541015 h -128.9824169 c -2.29375192,13.620267 1.6324994,65.376951 61.3320309,65.376951 c 44.321336,0 80.739396,-19.93209 97.414066,-61.746091 c 5.48666,0.09013 19.97254,0.983509 27.06054,-12.712891 c 0.172,-0.2296 1.80469,-3.630859 1.80469,-3.630859 l -2.70312,-1.816407 c -4.07334,-2.741199 -14.77469,-3.912272 -22.55469,-1.816406 c -0.41733,-7.75 -4.41394,-14.280296 -11.72461,-19.976562 z m -135.76953,18.039062 v 18.041016 h 19.84375 v -18.041016 z m 23.451172,0 v 18.041016 h 19.84375 v -18.041016 z m 23.453125,0 v 18.041016 h 19.841797 v -18.041016 z m 23.451172,0 v 18.041016 h 19.841801 v -18.041016 z m 23.451171,0 v 18.041016 h 19.84375 v -18.041016 z"
       transform="matrix(0.75000002,0,0,-0.75000002,0.00199329,122.29644)"
       id="path14"
       inkscape:connector-curvature="0" /><g
       id="g34"
       transform="matrix(0.1,0,0,0.1,0.00199329,21.856439)"><g
         clip-path="url(#clipPath40)"
         id="g36"><g
           clip-path="url(#clipPath46)"
           id="g42"><path
             inkscape:connector-curvature="0"
             id="path48"
             style="fill:#ffffff;fill-opacity:1;fill-rule:nonzero;stroke:none"
             d="m 57.5,0 h 608.836 v 263.609 h -608.836 z" /></g></g></g><path
       inkscape:connector-curvature="0"
       id="path50"
       style="fill:#026fb6;fill-opacity:1;fill-rule:evenodd;stroke:none"
       d="m 366.891,219.801 c -53.11,-30.313 -114.664,-47.336 -179.95,-47.336 c -33.082,0 -65.125,4.394 -95.6129,12.637 c 19.3049,-32.45 19.3049,-32.45 19.3049,-32.45 c 24.687,-4.875 50.191,-7.433 76.308,-7.433 c 70.356,0 135.977,18.39 193.141,50.742 c -4.734,7.832 -9.137,15.664 -13.191,23.84"
       transform="matrix(0.1,0,0,0.1,0.00199329,21.856439)" /><path
       inkscape:connector-curvature="0"
       id="path52"
       style="fill:#ffffff;fill-opacity:1;fill-rule:evenodd;stroke:none"
       d="m 469.844,237.457 c 25.976,0 47.035,21.199 47.035,47.352 c 0,26.152 -21.059,47.355 -47.035,47.355 c -25.985,0 -47.043,-21.203 -47.043,-47.355 c 0,-26.153 21.058,-47.352 47.043,-47.352"
       transform="matrix(0.1,0,0,0.1,0.00199329,21.856439)" /><path
       inkscape:connector-curvature="0"
       id="path54"
       style="fill:#4d5c64;fill-opacity:1;fill-rule:nonzero;stroke:none"
       d="m 476.922,298.109 c 0,4.348 2.144,8.039 5.285,10.528 c -3.687,1.914 -7.805,3.097 -12.234,3.097 c -14.84,0 -26.879,-12.121 -26.879,-27.062 c 0,-14.942 12.039,-27.059 26.879,-27.059 c 14.843,0 26.882,12.117 26.882,27.059 l -0.156,1.555 c -1.894,-1.016 -3.957,-1.731 -6.25,-1.731 c -7.472,0 -13.527,6.094 -13.527,13.613"
       transform="matrix(0.1,0,0,0.1,0.00199329,21.856439)" /><path
       inkscape:connector-curvature="0"
       id="path58"
       style="fill:#f2f2f2;fill-opacity:1;fill-rule:nonzero;stroke:none"
       d="m 549.133,15.6055 c 16.058,3.289 32.57,7.4843 49.551,12.6797 c -20.801,5.6562 -54.848,17.5195 -92.387,40.3789 c 309.246,7.5273 535.703,166.2539 716.713,540.8949 l 12.42,17.504 c 1.25,0.363 2.52,0.714 3.81,1.054 c 0.09,-1.219 0.17,-2.441 0.23,-3.668 c 20.61,5.551 43.95,8.047 66.87,8.047 c 39.3,0 77.36,-7.34 98.27,-19.191 c 0.03,-0.024 0.07,-0.047 0.11,-0.075 l 20.43,-13.851 l -10.29,-21.781 c -46.92,-95.106 -148.81,-102.25 -196.5,-102.25 c -3.88,0 -7.4,0.047 -10.5,0.097 c -116.92,-289.543 -359.821,-438.8786 -658.727,-459.8395"
       transform="matrix(0.1,0,0,0.1,0.00199329,21.856439)" /><path
       inkscape:connector-curvature="0"
       id="path60"
       style="fill:#0994e0;fill-opacity:1;fill-rule:nonzero;stroke:none"
       d="m 549.133,15.6055 c 16.058,3.289 32.57,7.4843 49.551,12.6797 c -20.801,5.6562 -54.848,17.5195 -92.387,40.3789 c 309.246,7.5273 535.703,166.2539 716.713,540.8949 l 12.42,17.504 c 1.25,0.363 2.52,0.714 3.81,1.054 c 0.09,-1.219 0.17,-2.441 0.23,-3.668 c 20.61,5.551 43.95,8.047 66.87,8.047 c 39.3,0 77.36,-7.34 98.27,-19.191 c 0.03,-0.024 0.07,-0.047 0.11,-0.075 l 20.43,-13.851 l -10.29,-21.781 c -46.92,-95.106 -148.81,-102.25 -196.5,-102.25 c -3.88,0 -7.4,0.047 -10.5,0.097 c -116.92,-289.543 -359.821,-438.8786 -658.727,-459.8395"
       transform="matrix(0.1,0,0,0.1,0.00199329,21.856439)" /><path
       inkscape:connector-curvature="0"
       id="path62"
       style="fill:#f2f2f2;fill-opacity:1;fill-rule:nonzero;stroke:none"
       d="m 315.418,31.6328 c -92.121,23.7617 -157.629,68.1953 -203.949,120.8552 c 4.676,-0.914 9.379,-1.742 14.113,-2.488 c 41.402,-47.02 97.754,-87.2617 173.824,-112.0508 c 5.242,-2.1875 10.586,-4.3008 16.012,-6.3164"
       transform="matrix(0.1,0,0,0.1,0.00199329,21.856439)" /><path
       inkscape:connector-curvature="0"
       id="path64"
       style="fill:#f2f2f2;fill-opacity:1;fill-rule:nonzero;stroke:none"
       d="m 299.406,37.9492 c -76.07,24.7891 -132.422,65.0308 -173.824,112.0508 c 1.398,-0.219 2.805,-0.434 4.207,-0.637 c 40.598,-33.933 96.02,-80.6638 169.617,-111.4138"
       transform="matrix(0.1,0,0,0.1,0.00199329,21.856439)" /><path
       inkscape:connector-curvature="0"
       id="path66"
       style="fill:#0994e0;fill-opacity:1;fill-rule:nonzero;stroke:none"
       d="m 299.406,37.9492 c -76.07,24.7891 -132.422,65.0308 -173.824,112.0508 c 1.398,-0.219 2.805,-0.434 4.207,-0.637 c 40.598,-33.933 96.02,-80.6638 169.617,-111.4138"
       transform="matrix(0.1,0,0,0.1,0.00199329,21.856439)" /><path
       inkscape:connector-curvature="0"
       id="path68"
       style="fill:#f2f2f2;fill-opacity:1;fill-rule:nonzero;stroke:none"
       d="m 109.145,155.152 c -101.53172,117.661 -109.0590625,274.993 -104.91844,335.707 h 16.04294 c -7.1562,-62.742 1.7188,-197.289 79.3789,-307.902 c -2.7851,0.684 -5.5586,1.398 -8.3203,2.145 c 11.0859,-18.637 15.8089,-26.571 17.8169,-29.95"
       transform="matrix(0.1,0,0,0.1,0.00199329,21.856439)" /><path
       inkscape:connector-curvature="0"
       id="path70"
       style="fill:#f2f2f2;fill-opacity:1;fill-rule:nonzero;stroke:none"
       d="m 179.387,172.543 c -27.426,0.555 -54.106,4.133 -79.7386,10.414 c -77.6601,110.613 -86.5351,245.16 -79.3789,307.902 h 38.0782 c 12.8046,-130.664 43.1643,-242.593 121.0393,-318.316"
       transform="matrix(0.1,0,0,0.1,0.00199329,21.856439)" /><path
       inkscape:connector-curvature="0"
       id="path72"
       style="fill:#0994e0;fill-opacity:1;fill-rule:nonzero;stroke:none"
       d="m 179.387,172.543 c -27.426,0.555 -54.106,4.133 -79.7386,10.414 c -77.6601,110.613 -86.5351,245.16 -79.3789,307.902 h 38.0782 c 12.8046,-130.664 43.1643,-242.593 121.0393,-318.316"
       transform="matrix(0.1,0,0,0.1,0.00199329,21.856439)" /><path
       inkscape:connector-curvature="0"
       id="path74"
       style="fill:#f2f2f2;fill-opacity:1;fill-rule:nonzero;stroke:none"
       d="m 474.555,13.0313 c -60.34,0 -113.063,6.7148 -159.137,18.6015 c -5.426,2.0156 -10.77,4.1289 -16.012,6.3164 c -73.597,30.75 -129.019,77.4808 -169.617,111.4138 c 18.656,-2.73 37.734,-4.144 57.152,-4.144 c 8.02,0 15.969,0.238 23.86,0.711 c 66.324,-48.8558 160.355,-76.9339 294.023,-77.3011 c 0.492,0.0117 0.981,0.0234 1.473,0.0352 c 37.539,-22.8594 71.586,-34.7227 92.387,-40.3789 c -16.981,-5.1954 -33.493,-9.3907 -49.551,-12.6797 c -24.496,-1.7188 -49.367,-2.5742 -74.578,-2.5742"
       transform="matrix(0.1,0,0,0.1,0.00199329,21.856439)" /><path
       inkscape:connector-curvature="0"
       id="path76"
       style="fill:#f2f2f2;fill-opacity:1;fill-rule:nonzero;stroke:none"
       d="m 474.555,13.0313 c -60.34,0 -113.063,6.7148 -159.137,18.6015 c -5.426,2.0156 -10.77,4.1289 -16.012,6.3164 c -73.597,30.75 -129.019,77.4808 -169.617,111.4138 c 18.656,-2.73 37.734,-4.144 57.152,-4.144 c 8.02,0 15.969,0.238 23.86,0.711 c 66.324,-48.8558 160.355,-76.9339 294.023,-77.3011 c 0.492,0.0117 0.981,0.0234 1.473,0.0352 c 37.539,-22.8594 71.586,-34.7227 92.387,-40.3789 c -16.981,-5.1954 -33.493,-9.3907 -49.551,-12.6797 c -24.496,-1.7188 -49.367,-2.5742 -74.578,-2.5742"
       transform="matrix(0.1,0,0,0.1,0.00199329,21.856439)" /><path
       inkscape:connector-curvature="0"
       id="path78"
       style="fill:#f2f2f2;fill-opacity:1;fill-rule:nonzero;stroke:none"
       d="m 186.941,145.219 c -19.418,0 -38.496,1.414 -57.152,4.144 c -1.402,0.203 -2.809,0.418 -4.207,0.637 c -4.734,0.746 -9.437,1.574 -14.113,2.488 c -0.785,0.891 -1.555,1.77 -2.324,2.664 c -2.008,3.379 -6.731,11.313 -17.8169,29.95 c 2.7617,-0.747 5.5352,-1.461 8.3203,-2.145 c 25.6326,-6.281 52.3126,-9.859 79.7386,-10.414 c 9.707,-9.441 20.172,-18.332 31.414,-26.613 c -7.891,-0.473 -15.84,-0.711 -23.86,-0.711"
       transform="matrix(0.1,0,0,0.1,0.00199329,21.856439)" /><path
       inkscape:connector-curvature="0"
       id="path80"
       style="fill:#0269ad;fill-opacity:1;fill-rule:nonzero;stroke:none"
       d="m 186.941,145.219 c -19.418,0 -38.496,1.414 -57.152,4.144 c -1.402,0.203 -2.809,0.418 -4.207,0.637 c -4.734,0.746 -9.437,1.574 -14.113,2.488 c -0.785,0.891 -1.555,1.77 -2.324,2.664 c -2.008,3.379 -6.731,11.313 -17.8169,29.95 c 2.7617,-0.747 5.5352,-1.461 8.3203,-2.145 c 25.6326,-6.281 52.3126,-9.859 79.7386,-10.414 c 9.707,-9.441 20.172,-18.332 31.414,-26.613 c -7.891,-0.473 -15.84,-0.711 -23.86,-0.711"
       transform="matrix(0.1,0,0,0.1,0.00199329,21.856439)" /><path
       style="fill:#066da5;fill-opacity:1;fill-rule:nonzero;stroke:none;stroke-width:0.13333333"
       d="m 81.810547,0.00390625 v 21.64648475 h -19.84375 h -3.609375 h -23.451172 v 21.648437 h -23.451172 v 21.609375 h -9.1777342 h -1.52343755 l -0.25585937,1.513672 c -0.70208399,4.171867 -0.69140557,10.256057 0.21484374,16.525391 c 1.13697868,7.866666 3.56796968,15.567024 7.41015628,22.462894 c 10.0063061,17.95986 28.1865021,28.50976 55.4902341,28.50976 c 46.458799,0 82.045899,-21.45079 98.615239,-61.722654 c 5.596,0.100533 9.46632,-0.257275 13.84765,-1.796875 c 5.80267,-2.040534 10.45617,-5.861783 13.57617,-11.853516 c 0.17467,-0.289067 0.42866,-0.800823 0.97266,-1.910156 c 0.196,-0.4016 0.40395,-0.831986 0.61328,-1.261719 c 0.0707,-0.150533 0.14001,-0.288399 0.27734,-0.572266 l 0.67969,-1.423828 l -4.00781,-2.693359 c -4.33333,-2.916667 -14.21508,-4.014583 -21.95508,-2.53125 c -0.99866,-7.297467 -5.09086,-13.631763 -12.26953,-19.226563 l -4.26172,-2.859375 l -2.80469,4.236329 c -3.668,5.567733 -5.3853,13.075856 -4.80664,20.222656 c 0.42667,4.098 1.69457,8.05226 3.72657,11.183594 c -3.07067,1.710933 -8.1097,3.112127 -13.4961,3.183593 v -21.595703 h -23.45117 v -18.039062 v -3.609375 v -21.64648475 z m 3.607422,3.60742185 h 19.841801 v 18.0390629 h -19.841801 z m 3.607422,3.609375 v 10.8242189 h 1.804687 v -10.8242189 z m 5.412109,0 v 10.8242189 h 1.802734 v -10.8242189 z m 5.412109,0 v 10.8242189 h 1.804691 v -10.8242189 z m -61.335937,18.0390629 h 19.84375 v 18.039062 h -19.84375 z m 23.453125,0 h 19.84375 v 18.039062 h -19.84375 z m 23.451172,0 h 19.841801 v 18.039062 h -19.841801 z m -43.294922,3.607422 v 10.824218 h 1.802734 v -10.824218 z m 5.412109,0 v 10.824218 h 1.802735 v -10.824218 z m 5.41211,0 v 10.824218 h 1.802734 v -10.824218 z m 12.626953,0 v 10.824218 h 1.802734 v -10.824218 z m 5.412109,0 v 10.824218 h 1.802734 v -10.824218 z m 5.410156,0 v 10.824218 h 1.804688 v -10.824218 z m 12.628907,0 v 10.824218 h 1.804687 v -10.824218 z m 5.412109,0 v 10.824218 h 1.802734 v -10.824218 z m 5.412109,0 v 10.824218 h 1.804691 v -10.824218 z m 50.853511,2.238281 l 1.1504,0.773437 c 7.00266,5.471467 10.59913,11.54761 10.98046,18.59961 l 0.11914,2.234375 l 2.14649,-0.578125 c 7.02533,-1.8916 17.30932,-0.967201 21.08398,1.572265 l 1.39453,0.935547 c -0.0627,0.131733 -0.12746,0.262693 -0.21679,0.44336 c -0.22267,0.455199 -0.41193,0.838419 -0.5586,1.126953 c -0.0787,0.1552 -0.14369,0.280863 -0.31835,0.591797 c -2.67867,5.174399 -6.61161,8.413702 -11.59961,10.167968 c -3.948,1.388 -7.52663,1.698291 -12.89063,1.587891 c -0.0533,-0.0016 -0.3895,-0.0091 -0.9375,-0.01953 l -1.24414,-0.01953 l -0.46094,1.158204 c -15.78133,39.575059 -50.24295,60.607419 -95.738279,60.607419 c -26.007866,0 -42.979304,-9.84963 -52.341797,-26.6543 c -3.6130262,-6.484394 -5.9117209,-13.760979 -6.9882809,-21.208979 c -0.7474,-5.166133 -0.8475335,-10.177612 -0.4355469,-13.882812 h 7.6074218 v 0.01367 h 23.451172 h 3.607422 h 19.84375 h 3.609375 h 19.84375 h 3.607422 h 19.841801 h 3.60937 h 23.45117 v -0.03516 c 7.14507,-0.08067 13.82636,-2.291284 17.17969,-4.896484 l 1.47852,-1.148438 l -1.19141,-1.449218 c -2.23467,-2.714134 -3.67285,-6.690252 -4.10352,-10.833985 c -0.512,-6.322933 1.01875,-13.020686 4.21875,-17.876953 z m -135.64062,15.800781 h 19.84375 v 18.001953 h -19.84375 z m 23.451172,0 h 19.84375 v 18.001953 h -19.84375 z m 23.453125,0 h 19.84375 v 18.001953 h -19.84375 z m 23.451172,0 h 19.841801 v 18.001953 h -19.841801 z m 23.451171,0 h 19.84375 v 18.001953 h -19.84375 z m -90.199218,3.607422 v 10.824219 h 1.804687 v -10.824219 z m 5.414062,0 v 10.824219 h 1.802735 v -10.824219 z m 5.410157,0 v 10.824219 h 1.804687 v -10.824219 z m 12.628906,0 v 10.824219 h 1.802734 v -10.824219 z m 5.412109,0 v 10.824219 h 1.802735 v -10.824219 z m 5.41211,0 v 10.824219 h 1.802734 v -10.824219 z m 12.626953,0 v 10.824219 h 1.802734 v -10.824219 z m 5.412109,0 v 10.824219 h 1.802734 v -10.824219 z m 5.410156,0 v 10.824219 h 1.804688 v -10.824219 z m 12.628907,0 v 10.824219 h 1.804687 v -10.824219 z m 5.412109,0 v 10.824219 h 1.802734 v -10.824219 z m 5.412109,0 v 10.824219 h 1.804691 v -10.824219 z m 12.626951,0 v 10.824219 h 1.80469 v -10.824219 z m 5.41211,0 v 10.824219 h 1.80469 v -10.824219 z m 5.41211,0 v 10.824219 h 1.80274 v -10.824219 z"
       transform="matrix(0.75000002,0,0,-0.75000002,0.00199329,122.29644)"
       id="path82"
       inkscape:connector-curvature="0" /></g></svg>