<?xml version="1.0" encoding="UTF-8" standalone="no"?>
<svg
   xmlns:dc="http://purl.org/dc/elements/1.1/"
   xmlns:cc="http://creativecommons.org/ns#"
   xmlns:rdf="http://www.w3.org/1999/02/22-rdf-syntax-ns#"
   xmlns:svg="http://www.w3.org/2000/svg"
   xmlns="http://www.w3.org/2000/svg"
   xmlns:sodipodi="http://sodipodi.sourceforge.net/DTD/sodipodi-0.dtd"
   xmlns:inkscape="http://www.inkscape.org/namespaces/inkscape"
   version="1.0"
   width="1200"
   height="1200"
   overflow="scroll"
   id="svg16"
   sodipodi:docname="latex.svg"
   style="overflow:scroll"
   inkscape:version="0.92.2 5c3e80d, 2017-08-06">
  <metadata
     id="metadata22">
    <rdf:RDF>
      <cc:Work
         rdf:about="">
        <dc:format>image/svg+xml</dc:format>
        <dc:type
           rdf:resource="http://purl.org/dc/dcmitype/StillImage" />
        <dc:title>LaTeX logo</dc:title>
      </cc:Work>
    </rdf:RDF>
  </metadata>
  <defs
     id="defs20" />
  <sodipodi:namedview
     pagecolor="#ffffff"
     bordercolor="#666666"
     borderopacity="1"
     objecttolerance="10"
     gridtolerance="10"
     guidetolerance="10"
     inkscape:pageopacity="0"
     inkscape:pageshadow="2"
     inkscape:window-width="1920"
     inkscape:window-height="1171"
     id="namedview18"
     showgrid="false"
     inkscape:zoom="0.39"
     inkscape:cx="600"
     inkscape:cy="250"
     inkscape:window-x="0"
     inkscape:window-y="0"
     inkscape:window-maximized="1"
     inkscape:current-layer="svg16" />
  <title
     id="title2">LaTeX logo</title>
  <g
     transform="matrix(45,0,0,45,39.75,392.55)"
     id="g14"
     style="fill:#000000">
    <path
       transform="translate(0,0.17)"
       d="m 5.46,4.23 c 0,0 -0.25,0 -0.25,0 c -0.1,1.02 -0.24,2.26 -2,2.26 c 0,0 -0.81,0 -0.81,0 c -0.47,0 -0.49,-0.07 -0.49,-0.4 c 0,0 0,-5.31 0,-5.31 c 0,-0.34 0,-0.48 0.94,-0.48 c 0,0 0.33,0 0.33,0 c 0,0 0,-0.3 0,-0.3 c -0.36,0.03 -1.26,0.03 -1.67,0.03 c -0.39,0 -1.17,0 -1.51,-0.03 c 0,0 0,0.3 0,0.3 c 0,0 0.23,0 0.23,0 c 0.77,0 0.79,0.11 0.79,0.47 c 0,0 0,5.25 0,5.25 c 0,0.36 -0.02,0.47 -0.79,0.47 c 0,0 -0.23,0 -0.23,0 c 0,0 0,0.31 0,0.31 c 0,0 5.19,0 5.19,0 c 0,0 0.27,-2.57 0.27,-2.57 z"
       id="path4"
       inkscape:connector-curvature="0" />
    <path
       transform="translate(2.48)"
       d="m 2.81,0.16 c -0.04,-0.12 -0.06,-0.16 -0.19,-0.16 c -0.13,0 -0.16,0.04 -0.2,0.16 c 0,0 -1.61,4.08 -1.61,4.08 c -0.07,0.17 -0.19,0.48 -0.81,0.48 c 0,0 0,0.25 0,0.25 c 0,0 1.55,0 1.55,0 c 0,0 0,-0.25 0,-0.25 c -0.31,0 -0.5,-0.14 -0.5,-0.34 c 0,-0.05 0.01,-0.07 0.03,-0.14 c 0,0 0.34,-0.86 0.34,-0.86 c 0,0 1.98,0 1.98,0 c 0,0 0.4,1.02 0.4,1.02 c 0.02,0.04 0.04,0.09 0.04,0.12 c 0,0.2 -0.38,0.2 -0.57,0.2 c 0,0 0,0.25 0,0.25 c 0,0 1.97,0 1.97,0 c 0,0 0,-0.25 0,-0.25 c 0,0 -0.14,0 -0.14,0 c -0.47,0 -0.52,-0.07 -0.59,-0.27 c 0,0 -1.7,-4.29 -1.7,-4.29 z m -0.4,0.71 c 0,0 0.89,2.26 0.89,2.26 c 0,0 -1.78,0 -1.78,0 c 0,0 0.89,-2.26 0.89,-2.26 z"
       id="path6"
       inkscape:connector-curvature="0" />
    <path
       transform="translate(7.03,0.23)"
       d="m 6.27,0 c 0,0 -6.09,0 -6.09,0 c 0,0 -0.18,2.24 -0.18,2.24 c 0,0 0.24,0 0.24,0 c 0.14,-1.61 0.29,-1.94 1.8,-1.94 c 0.18,0 0.44,0 0.54,0.02 c 0.21,0.04 0.21,0.15 0.21,0.38 c 0,0 0,5.25 0,5.25 c 0,0.34 0,0.48 -1.05,0.48 c 0,0 -0.4,0 -0.4,0 c 0,0 0,0.31 0,0.31 c 0.41,-0.03 1.42,-0.03 1.88,-0.03 c 0.46,0 1.49,0 1.9,0.03 c 0,0 0,-0.31 0,-0.31 c 0,0 -0.4,0 -0.4,0 c -1.05,0 -1.05,-0.14 -1.05,-0.48 c 0,0 0,-5.25 0,-5.25 c 0,-0.2 0,-0.34 0.18,-0.38 c 0.11,-0.02 0.38,-0.02 0.57,-0.02 c 1.5,0 1.65,0.33 1.79,1.94 c 0,0 0.25,0 0.25,0 c 0,0 -0.19,-2.24 -0.19,-2.24 z"
       id="path8"
       inkscape:connector-curvature="0" />
    <path
       transform="translate(12.5,2.45)"
       d="m 6.16,4.2 c 0,0 -0.25,0 -0.25,0 c -0.25,1.53 -0.48,2.26 -2.19,2.26 c 0,0 -1.32,0 -1.32,0 c -0.47,0 -0.49,-0.07 -0.49,-0.4 c 0,0 0,-2.66 0,-2.66 c 0,0 0.89,0 0.89,0 c 0.97,0 1.08,0.32 1.08,1.17 c 0,0 0.25,0 0.25,0 c 0,0 0,-2.64 0,-2.64 c 0,0 -0.25,0 -0.25,0 c 0,0.85 -0.11,1.16 -1.08,1.16 c 0,0 -0.89,0 -0.89,0 c 0,0 0,-2.39 0,-2.39 c 0,-0.33 0.02,-0.4 0.49,-0.4 c 0,0 1.28,0 1.28,0 c 1.53,0 1.79,0.55 1.95,1.94 c 0,0 0.25,0 0.25,0 c 0,0 -0.28,-2.24 -0.28,-2.24 c 0,0 -5.6,0 -5.6,0 c 0,0 0,0.3 0,0.3 c 0,0 0.23,0 0.23,0 c 0.77,0 0.79,0.11 0.79,0.47 c 0,0 0,5.22 0,5.22 c 0,0.36 -0.02,0.47 -0.79,0.47 c 0,0 -0.23,0 -0.23,0 c 0,0 0,0.31 0,0.31 c 0,0 5.74,0 5.74,0 c 0,0 0.42,-2.57 0.42,-2.57 z"
       id="path10"
       inkscape:connector-curvature="0" />
    <path
       transform="translate(17.91,0.17)"
       d="m 3.76,2.95 c 0,0 1.37,-2 1.37,-2 c 0.21,-0.32 0.55,-0.64 1.44,-0.65 c 0,0 0,-0.3 0,-0.3 c 0,0 -2.38,0 -2.38,0 c 0,0 0,0.3 0,0.3 c 0.4,0.01 0.62,0.23 0.62,0.46 c 0,0.1 -0.02,0.12 -0.09,0.23 c 0,0 -1.14,1.68 -1.14,1.68 c 0,0 -1.28,-1.92 -1.28,-1.92 c -0.02,-0.03 -0.07,-0.11 -0.07,-0.15 c 0,-0.12 0.22,-0.29 0.64,-0.3 c 0,0 0,-0.3 0,-0.3 c -0.34,0.03 -1.07,0.03 -1.45,0.03 c -0.31,0 -0.93,-0.01 -1.3,-0.03 c 0,0 0,0.3 0,0.3 c 0,0 0.19,0 0.19,0 c 0.55,0 0.74,0.07 0.93,0.35 c 0,0 1.83,2.77 1.83,2.77 c 0,0 -1.63,2.41 -1.63,2.41 c -0.14,0.2 -0.44,0.66 -1.44,0.66 c 0,0 0,0.31 0,0.31 c 0,0 2.38,0 2.38,0 c 0,0 0,-0.31 0,-0.31 c -0.46,-0.01 -0.63,-0.28 -0.63,-0.46 c 0,-0.09 0.03,-0.13 0.1,-0.24 c 0,0 1.41,-2.09 1.41,-2.09 c 0,0 1.58,2.38 1.58,2.38 c 0.02,0.04 0.05,0.08 0.05,0.11 c 0,0.12 -0.22,0.29 -0.65,0.3 c 0,0 0,0.31 0,0.31 c 0.35,-0.03 1.08,-0.03 1.45,-0.03 c 0.42,0 0.88,0.01 1.3,0.03 c 0,0 0,-0.31 0,-0.31 c 0,0 -0.19,0 -0.19,0 c -0.52,0 -0.73,-0.05 -0.94,-0.36 c 0,0 -2.1,-3.18 -2.1,-3.18 z"
       id="path12"
       inkscape:connector-curvature="0" />
  </g>
</svg>
