<?xml version="1.0" encoding="UTF-8" standalone="no"?>
<!-- Created with Inkscape (http://www.inkscape.org/) -->

<svg
   xmlns:dc="http://purl.org/dc/elements/1.1/"
   xmlns:cc="http://creativecommons.org/ns#"
   xmlns:rdf="http://www.w3.org/1999/02/22-rdf-syntax-ns#"
   xmlns:svg="http://www.w3.org/2000/svg"
   xmlns="http://www.w3.org/2000/svg"
   xmlns:sodipodi="http://sodipodi.sourceforge.net/DTD/sodipodi-0.dtd"
   xmlns:inkscape="http://www.inkscape.org/namespaces/inkscape"
   version="1.1"
   id="svg2"
   xml:space="preserve"
   width="1261.916"
   height="1261.9102"
   viewBox="0 0 1261.916 1261.9101"
   sodipodi:docname="lua.svg"
   inkscape:version="0.92.2 5c3e80d, 2017-08-06"><metadata
     id="metadata8"><rdf:RDF><cc:Work
         rdf:about=""><dc:format>image/svg+xml</dc:format><dc:type
           rdf:resource="http://purl.org/dc/dcmitype/StillImage" /><dc:title /></cc:Work></rdf:RDF></metadata><defs
     id="defs6" /><sodipodi:namedview
     pagecolor="#ffffff"
     bordercolor="#666666"
     borderopacity="1"
     objecttolerance="10"
     gridtolerance="10"
     guidetolerance="10"
     inkscape:pageopacity="0"
     inkscape:pageshadow="2"
     inkscape:window-width="1366"
     inkscape:window-height="739"
     id="namedview4"
     showgrid="false"
     inkscape:zoom="0.21021376"
     inkscape:cx="127.66907"
     inkscape:cy="824.43952"
     inkscape:window-x="0"
     inkscape:window-y="0"
     inkscape:window-maximized="1"
     inkscape:current-layer="g12"
     fit-margin-top="0"
     fit-margin-left="0"
     fit-margin-right="0"
     fit-margin-bottom="0" /><g
     id="g10"
     inkscape:groupmode="layer"
     inkscape:label="ink_ext_XXXXXX"
     transform="matrix(1.3333333,0,0,-1.3333333,-51.712891,1313.6179)"><g
       id="g12"
       transform="scale(0.1)"><path
         style="fill:#000080;fill-opacity:1;fill-rule:nonzero;stroke:none;stroke-width:0.13333333"
         d="m 682.66602,-42.71875 c -266.59733,0 -482.71875,216.12142 -482.71875,482.71875 c 0,266.59733 216.12142,482.71875 482.71875,482.71875 c 266.59732,0 482.71878,-216.12142 482.71878,-482.71875 c 0,-266.59733 -216.12146,-482.71875 -482.71878,-482.71875 z"
         transform="matrix(7.5000002,0,0,-7.5000002,0,8420.0005)"
         id="path876" /><path
         style="fill:#000080;fill-opacity:1;fill-rule:nonzero;stroke:none;stroke-width:0.13333333"
         d="m 1162.6152,-181.33398 c -78.084,0 -141.3847,63.30138 -141.3847,141.386714 c 0,78.083999 63.3007,141.382816 141.3847,141.382816 c 78.0854,0 141.3848,-63.298817 141.3848,-141.382816 c 0,-78.085334 -63.2994,-141.386714 -141.3848,-141.386714 z"
         transform="matrix(7.5000002,0,0,-7.5000002,0,8420.0005)"
         id="path890" /><path
         style="fill:#ffffff;fill-opacity:1;fill-rule:nonzero;stroke:none;stroke-width:0.13333333"
         d="m 882.61523,98.666016 c 78.08534,0 141.38477,63.301384 141.38477,141.386714 c 0,78.084 -63.29943,141.38282 -141.38477,141.38282 c -78.08399,0 -141.38476,-63.29882 -141.38476,-141.38282 c 0,-78.08533 63.30077,-141.386714 141.38476,-141.386714 z"
         transform="matrix(7.5000002,0,0,-7.5000002,0,8420.0005)"
         id="path870" /><path
         style="fill:#ffffff;fill-opacity:1;fill-rule:nonzero;stroke:none;stroke-width:0.13333333"
         d="m 355.09375,364.64648 h 40.4043 v 281.0879 h 156.40039 v 35.625 h -196.80469 z"
         transform="matrix(7.5000002,0,0,-7.5000002,0,8420.0005)"
         id="path856" /><path
         style="fill:#ffffff;fill-opacity:1;fill-rule:nonzero;stroke:none;stroke-width:0.13333333"
         d="M 871.20312 638.14258 C 837.75073 638.14258 811.24946 647.70112 795.60938 664.64453 C 785.18265 676.3746 780.83764 689.40877 779.96875 712 L 816.46289 712 C 819.50401 684.19541 836.01355 671.5957 869.90039 671.5957 C 902.91834 671.5957 920.73047 683.76009 920.73047 705.48242 L 920.73047 715.04102 C 920.29603 730.6811 912.47597 736.32826 882.93359 740.23828 C 831.66889 746.75498 823.84956 748.49282 809.94727 754.14062 C 783.44603 765.43625 769.97656 785.42052 769.97656 814.96289 C 769.97656 856.23532 798.64983 882.30273 844.70117 882.30273 C 873.37465 882.30273 896.40084 872.30973 922.0332 848.84961 C 924.63988 872.30973 935.93628 882.30273 959.39648 882.30273 C 967.21648 882.30273 971.99566 881.4337 984.16016 878.39258 L 984.16016 851.02148 C 980.25016 851.89038 978.51214 851.89062 976.33984 851.89062 C 963.74094 851.89062 956.78906 845.37375 956.78906 834.07812 L 956.78906 700.26953 C 956.78906 659.866 927.24675 638.14258 871.20312 638.14258 z M 920.73047 759.78906 L 920.73047 800.62695 C 920.73047 812.79146 917.25374 820.17569 906.39258 830.16797 C 891.62139 843.63581 873.80935 850.58789 852.52148 850.58789 C 824.28243 850.58789 807.77344 837.11942 807.77344 814.09375 C 807.77344 790.19918 823.41349 778.03452 862.51367 772.38672 C 901.17943 767.17336 908.56596 765.43687 920.73047 759.78906 z "
         transform="matrix(7.5000002,0,0,-7.5000002,387.84669,9852.1345)"
         id="path854" /><path
         style="fill:#ffffff;fill-opacity:1;fill-rule:nonzero;stroke:none;stroke-width:0.13333333"
         d="m 590.13086,453.70898 h 36.05859 v 161.17969 c 0,27.37014 18.24642,44.74805 46.91993,44.74805 c 37.79685,0 62.125,-30.41069 62.125,-76.89649 v -129.03125 h 36.06054 v 227.6504 h -32.58398 v -31.71485 c -21.28788,29.97682 -42.57496,41.70703 -76.02735,41.70703 c -44.31356,0 -72.55273,-24.33009 -72.55273,-62.12695 z"
         transform="matrix(7.5000002,0,0,-7.5000002,0,8420.0005)"
         id="path852" /><path
         id="path14"
         transform="matrix(7.5000002,0,0,-7.5000002,0,8420.0005)"
         style="fill:#808080;fill-opacity:1;fill-rule:nonzero;stroke:none;stroke-width:0.13333333"
         d="m 757.97266,1052.3105 l -0.59375,0.074 h -0.0234 l -3.82422,0.4492 h -0.0176 l -3.85937,0.4297 h -0.0156 l -3.91601,0.4102 l -3.84571,0.3789 h -0.01 l -3.88867,0.3574 h -0.004 l -3.94336,0.3379 h -0.006 l -3.90234,0.3106 h -0.01 l -3.9043,0.2851 h -0.0156 l -3.91016,0.2597 h -0.0156 l -3.91211,0.2364 h -0.0215 l -3.89453,0.209 h -0.0195 l -3.92773,0.1875 h -0.0137 l -3.93946,0.1621 h -0.01 l -2.19922,0.078 l 0.5039,14.4727 l 2.21094,-0.078 h 0.0215 h 0.0234 l 3.99805,-0.1661 h 0.0234 h 0.0234 l 3.99218,-0.1895 h 0.0234 h 0.0215 l 3.98632,-0.2149 h 0.0234 h 0.0215 l 3.98047,-0.2402 h 0.0215 h 0.0234 l 3.97265,-0.2636 h 0.0234 h 0.0215 l 3.9668,-0.2891 h 0.0215 h 0.0234 l 3.95899,-0.3145 h 0.0215 h 0.0234 l 3.95117,-0.3379 h 0.0234 h 0.0234 l 3.94335,-0.3633 h 0.0234 h 0.0215 l 3.9375,-0.3887 h 0.0234 h 0.0234 l 3.92969,-0.4121 h 0.0234 h 0.0215 l 3.92383,-0.4355 h 0.0215 h 0.0234 l 3.91602,-0.4609 h 0.0215 h 0.0234 l 0.61719,-0.076 z m -161.05664,-1.3613 l -1.9629,14.3477 l 3.34376,0.457 h 0.0234 h 0.0215 l 3.90039,0.5097 h 0.0234 h 0.0234 l 3.90821,0.4844 h 0.0215 h 0.0234 l 3.91601,0.4609 h 0.0215 h 0.0234 l 3.92188,0.4355 h 0.0234 h 0.0234 l 3.92968,0.4121 h 0.0234 h 0.0215 l 3.9375,0.3867 h 0.0234 h 0.0234 l 3.94336,0.3633 h 0.0234 h 0.0215 l 3.95313,0.3379 h 0.0215 h 0.0234 l 3.95898,0.3145 h 0.0234 h 0.0215 l 3.9668,0.289 h 0.0215 h 0.0234 l 3.97266,0.2636 h 0.0215 h 0.0234 l 3.97852,0.2402 h 0.0234 h 0.0234 l 3.57227,0.1934 l 0.77929,-14.4609 l -3.55078,-0.1914 l -3.91015,-0.2364 h -0.0156 l -3.91016,-0.2597 h -0.0156 l -3.9043,-0.2851 h -0.01 l -3.9043,-0.3086 h -0.004 l -3.94335,-0.3379 h -0.004 l -3.89063,-0.3574 h -0.008 l -3.84765,-0.3789 l -3.91211,-0.4102 h -0.0176 l -3.85938,-0.4297 h -0.0176 l -3.82617,-0.4492 h -0.0215 h -0.0234 l -3.81641,-0.4727 h -0.0195 l -3.83593,-0.5 h -0.0137 z m 266.24414,-20.9121 l -0.68946,0.2109 h -0.0137 l -3.5918,1.082 l -0.0254,0.01 h -0.0176 l -3.63282,1.0684 h -0.0117 l -3.63867,1.0449 l -0.0156,0.01 l -3.6211,1.0156 l -3.67187,1.0058 l -3.7168,0.9942 h -0.01 l -3.64649,0.9512 h -0.0215 l -0.0215,0.01 l -3.65625,0.9297 l -3.74023,0.9238 h -0.0137 l -3.69922,0.8906 h -0.0176 l -3.68164,0.8613 l -0.0234,0.01 l -0.0215,0.01 l -3.7168,0.8457 h -0.0176 l -3.69922,0.8164 l -0.0215,0.01 h -0.0215 l -3.42969,0.7364 l 3.03515,14.1582 l 3.47461,-0.7442 h 0.0215 l 0.0234,-0.01 l 3.7871,-0.836 l 0.0215,-0.01 h 0.0215 l 3.7793,-0.8614 h 0.0215 l 0.0234,-0.01 l 3.76953,-0.8828 l 0.0215,-0.01 h 0.0234 l 3.75977,-0.9063 l 0.0234,-0.01 h 0.0215 l 3.75196,-0.9297 h 0.0215 l 0.0234,-0.01 l 3.74219,-0.9511 l 0.0215,-0.01 l 0.0234,-0.01 l 3.73437,-0.9726 l 0.0215,-0.01 l 0.0215,-0.01 l 3.72461,-0.9961 l 0.0215,-0.01 l 0.0234,-0.01 l 3.71485,-1.0176 l 0.0215,-0.01 l 0.0215,-0.01 l 3.70704,-1.0411 l 0.0215,-0.01 l 0.0234,-0.01 l 3.69726,-1.0625 l 0.0215,-0.01 l 0.0215,-0.01 l 3.6875,-1.0839 l 0.0215,-0.01 l 0.0215,-0.01 l 3.67969,-1.1055 l 0.0215,-0.01 l 0.0215,-0.01 l 0.70312,-0.2168 z m -371.03516,-3.1641 l -4.42969,13.7872 l 3.50781,1.1269 l 0.0215,0.01 l 0.0215,0.01 l 3.66016,1.1504 l 0.0215,0.01 l 0.0215,0.01 l 3.66797,1.129 l 0.0215,0.01 l 0.0215,0.01 l 3.67968,1.1055 l 0.0215,0.01 l 0.0215,0.01 l 3.6875,1.0839 l 0.0215,0.01 l 0.0215,0.01 l 3.69727,1.0625 l 0.0215,0.01 l 0.0215,0.01 l 3.70703,1.0411 l 0.0215,0.01 l 0.0215,0.01 l 3.71679,1.0176 l 0.0215,0.01 l 0.0215,0.01 l 3.72656,0.9961 l 0.0215,0.01 l 0.0215,0.01 l 3.73438,0.9726 l 0.0215,0.01 l 0.0234,0.01 l 3.74219,0.9511 l 0.0215,0.01 h 0.0234 l 3.75195,0.9297 h 0.0215 l 0.0215,0.01 l 3.76172,0.9063 h 0.0215 l 0.0234,0.01 l 3.76953,0.8828 l 0.0215,0.01 h 0.0234 l 0.66602,0.1524 l 3.21289,-14.1211 l -0.62305,-0.1406 l -0.0215,-0.01 l -0.0215,-0.01 l -3.68164,-0.8613 h -0.0176 l -3.70118,-0.8906 h -0.0117 l -3.74024,-0.9238 l -3.65625,-0.9297 l -0.0234,-0.01 h -0.0195 l -3.64844,-0.9512 l -0.0176,-0.01 l -3.70703,-0.9903 l -3.67188,-1.0058 l -3.62109,-1.0156 h -0.006 l -3.64844,-1.0488 h -0.0117 l -3.63281,-1.0684 h -0.0195 l -0.0234,-0.01 l -3.59375,-1.082 h -0.0137 l -3.61133,-1.1113 h -0.01 l -3.60742,-1.1348 l -0.0176,-0.01 z m 470.73047,-37.16792 l -2.70313,1.37304 l -0.0137,0.008 l -3.30273,1.65234 l -3.38672,1.66992 l -0.006,0.004 l -3.32617,1.61523 l -0.01,0.004 l -3.40625,1.62891 l -3.34765,1.57617 l -0.0156,0.008 l -0.0234,0.01 l -3.35937,1.55661 l -0.0117,0.01 l -3.39844,1.5488 l -0.0234,0.01 l -0.0176,0.01 l -3.38086,1.5156 l -0.0176,0.01 l -0.0215,0.01 l -3.39257,1.4961 l -0.0137,0.01 l -3.42773,1.4863 h -0.006 l -3.44922,1.4727 l -3.49414,1.4648 h -0.01 l -3.43555,1.416 h -0.004 l -1.96094,0.7949 l 5.4375,13.4219 l 1.96485,-0.7949 l 0.0195,-0.01 l 0.0215,-0.01 l 3.51563,-1.4492 l 0.0195,-0.01 l 0.0215,-0.01 l 3.50586,-1.4688 l 0.0195,-0.01 l 0.0215,-0.01 l 3.49414,-1.4922 l 0.0195,-0.01 l 0.0215,-0.01 l 3.48242,-1.5117 l 0.0215,-0.01 l 0.0195,-0.01 l 3.47266,-1.5332 l 0.0195,-0.01 l 0.0215,-0.01 l 3.46093,-1.5528 l 0.0195,-0.01 l 0.0215,-0.01 l 3.44922,-1.5722 l 0.0215,-0.01 l 0.0195,-0.01 l 3.4375,-1.5918 l 0.0215,-0.01 l 0.0195,-0.01 l 3.42773,-1.6133 l 0.0195,-0.01 l 0.0195,-0.01 l 3.41796,-1.6328 l 0.0195,-0.01 l 0.0195,-0.01 l 3.40429,-1.6524 l 0.0195,-0.01 l 0.0195,-0.01 l 3.39453,-1.6738 l 0.0195,-0.01 l 0.0195,-0.01 l 3.38086,-1.6933 l 0.0195,-0.01 l 0.0195,-0.01 l 2.7168,-1.3808 z m -569.67969,-4.85352 l -6.79687,12.78711 l 2.06054,1.09571 l 0.0195,0.0117 l 0.0195,0.01 l 3.34765,1.75192 l 0.0195,0.01 l 0.0195,0.01 l 3.35743,1.7344 l 0.0195,0.01 l 0.0195,0.01 l 3.36914,1.7129 l 0.0195,0.01 l 0.0195,0.01 l 3.38281,1.6933 l 0.0195,0.01 l 0.0195,0.01 l 3.39258,1.6738 l 0.0195,0.01 l 0.0215,0.01 l 3.4043,1.6524 l 0.0195,0.01 l 0.0195,0.01 l 3.41602,1.6328 l 0.0195,0.01 l 0.0215,0.01 l 3.42774,1.6133 l 0.0195,0.01 l 0.0195,0.01 l 3.43945,1.5918 l 0.0195,0.01 l 0.0195,0.01 l 3.45118,1.5722 l 0.0195,0.01 l 0.0215,0.01 l 3.46094,1.5528 l 0.0195,0.01 l 0.0215,0.01 l 3.47266,1.5332 l 0.0195,0.01 l 0.0195,0.01 l 3.48438,1.5098 l 0.0195,0.01 l 0.0215,0.01 l 2.66602,1.1386 l 5.68164,-13.3203 l -2.66602,-1.1387 l -3.40234,-1.4746 l -0.0117,-0.01 l -3.41992,-1.5078 h -0.008 l -3.41407,-1.5313 l -0.0156,-0.01 l -0.0234,-0.01 l -3.39844,-1.5488 l -0.0117,-0.01 l -3.35938,-1.55657 l -0.0234,-0.01 l -0.0156,-0.008 l -3.34766,-1.57617 l -3.40625,-1.62891 l -0.0117,-0.004 l -3.32422,-1.61523 l -0.008,-0.004 l -3.38281,-1.66797 l -0.004,-0.002 l -3.30273,-1.65234 l -0.0117,-0.008 l -3.31836,-1.68554 l -0.008,-0.004 l -3.31055,-1.70898 l -0.0215,-0.0117 l -0.0176,-0.008 l -3.26953,-1.71289 l -0.0137,-0.008 l -0.0254,-0.0117 z m 660.80662,-52.2207 l -2.2597,1.69922 l -2.9395,2.18554 l -0.018,0.0137 l -0.018,0.0137 l -2.955,2.16797 l -0.01,0.006 l -3.0293,2.19531 l -2.9805,2.13477 l -0.01,0.006 l -3.0196,2.13477 l -0.023,0.0156 l -0.014,0.01 l -3.0429,2.12305 l -3.0528,2.10156 v 0.004 l -3.0703,2.08789 l -3.0469,2.04492 l -0.01,0.006 l -3.086,2.04492 l -0.023,0.0156 l -0.014,0.008 l -3.0722,2.00976 l -0.018,0.0117 l -0.02,0.0117 l -3.1171,2.01172 l -0.01,0.004 l -3.0977,1.97265 l -0.025,0.0156 l -0.012,0.008 l -2.3476,1.47461 l 7.707,12.26367 l 2.3828,-1.49805 l 0.018,-0.0117 l 0.019,-0.0117 l 3.1719,-2.02149 l 0.018,-0.0117 l 0.02,-0.0117 l 3.1582,-2.03906 l 0.018,-0.0117 l 0.02,-0.0117 l 3.1446,-2.05664 l 0.019,-0.0117 l 0.018,-0.0117 l 3.1328,-2.07618 l 0.018,-0.0117 l 0.017,-0.0117 l 3.1211,-2.09375 l 0.018,-0.0137 l 0.018,-0.0117 l 3.1055,-2.11133 l 0.019,-0.0117 l 0.018,-0.0137 l 3.0918,-2.12891 l 0.017,-0.0137 l 0.018,-0.0117 l 3.0801,-2.14844 l 0.018,-0.0117 l 0.018,-0.0137 l 3.0664,-2.16601 l 0.017,-0.0117 l 0.018,-0.0137 l 3.0528,-2.1836 l 0.017,-0.0137 l 0.018,-0.0117 l 3.0371,-2.20312 l 0.018,-0.0117 l 0.018,-0.0137 l 3.0254,-2.21875 l 0.017,-0.0137 l 0.018,-0.0137 l 3.0098,-2.23633 l 0.018,-0.0137 l 0.017,-0.0117 l 2.2579,-1.70117 z m -750.9531,-6.39453 l -8.91407,11.41211 l 1.73633,1.35547 l 0.0156,0.0137 l 0.0176,0.0137 l 2.96875,2.28906 l 0.0176,0.0137 l 0.0176,0.0137 l 2.98242,2.27148 l 0.0176,0.0137 l 0.0156,0.0137 l 2.99804,2.25391 l 0.0176,0.0137 l 0.0176,0.0117 l 3.00977,2.23828 l 0.0176,0.0137 l 0.0176,0.0117 l 3.02344,2.22071 l 0.0176,0.0137 l 0.0176,0.0117 l 3.03906,2.20117 l 0.0176,0.0137 l 0.0176,0.0137 l 3.05274,2.1836 l 0.0176,0.0117 l 0.0176,0.0137 l 3.06446,2.16601 l 0.0176,0.0117 l 0.0176,0.0137 l 3.08008,2.14844 l 0.0176,0.0117 l 0.0176,0.0117 l 3.09375,2.13086 l 0.0176,0.0117 l 0.0176,0.0117 l 3.10546,2.11329 l 0.0195,0.0117 l 0.0176,0.0117 l 3.11914,2.09375 l 0.0176,0.0137 l 0.0195,0.0117 l 3.13282,2.07422 l 0.0176,0.0137 l 0.0176,0.0117 l 2.9043,1.89844 l 7.92578,-12.12109 l -2.90234,-1.89649 l -0.002,-0.002 l -3.08789,-2.04688 l -0.008,-0.006 l -3.08398,-2.06836 l -3.03321,-2.06446 l -0.006,-0.002 l -3.05273,-2.10352 l -0.0176,-0.0117 l -0.0176,-0.0117 l -3.03906,-2.1211 l -0.004,-0.004 l -3.02929,-2.14063 l -2.98243,-2.13281 l -0.0117,-0.01 l -0.0234,-0.0156 l -2.96875,-2.15234 l -0.004,-0.002 l -2.98437,-2.1914 l -0.0195,-0.0137 l -0.0156,-0.0117 l -2.9414,-2.18554 l -0.004,-0.004 l -2.95703,-2.22656 l -2.98438,-2.27149 l -2.92383,-2.25781 l -0.01,-0.006 z m 830.8379,-65.59766 l -2.1113,2.25781 l -0.016,0.0156 l -0.016,0.0156 l -2.5156,2.6543 l -0.01,0.006 l -2.5547,2.66406 l -0.02,0.0195 l -0.012,0.0117 l -2.5762,2.65625 l -2.5625,2.60938 v 0.002 l -2.6075,2.6211 l -0.016,0.0156 l -0.016,0.0156 l -2.5938,2.57813 l -0.01,0.006 l -2.6328,2.58789 l -2.6856,2.60742 l -2.666,2.55469 l -0.01,0.006 l -2.6542,2.51562 l -0.016,0.0156 l -0.016,0.0137 l -2.6699,2.5 l -0.01,0.008 l -2.709,2.50586 l -0.02,0.0195 l -0.012,0.01 l -2.7304,2.49805 l -1.9434,1.7539 l 9.709,10.7461 l 1.9746,-1.78321 l 0.016,-0.0156 l 0.016,-0.0137 l 2.7637,-2.52735 l 0.016,-0.0137 l 0.016,-0.0156 l 2.748,-2.54297 l 0.016,-0.0137 l 0.016,-0.0156 l 2.7324,-2.55859 l 0.016,-0.0156 l 0.016,-0.0137 l 2.7188,-2.57617 l 0.016,-0.0137 l 0.016,-0.0156 l 2.7012,-2.5918 l 0.016,-0.0137 l 0.016,-0.0156 l 2.6855,-2.60743 l 0.016,-0.0156 l 0.016,-0.0137 l 2.6699,-2.625 l 0.016,-0.0137 l 0.016,-0.0156 l 2.6543,-2.63867 l 0.016,-0.0156 l 0.016,-0.0156 l 2.6386,-2.6543 l 0.016,-0.0156 l 0.016,-0.0156 l 2.623,-2.66992 l 0.016,-0.0156 l 0.014,-0.0156 l 2.6075,-2.6875 l 0.016,-0.0137 l 0.016,-0.0156 l 2.5899,-2.70312 l 0.016,-0.0156 l 0.016,-0.0156 l 2.5742,-2.7168 l 0.016,-0.0156 l 0.014,-0.0156 l 2.1426,-2.28711 z m -909.49415,-7.73437 l -10.7461,9.70703 l 1.69532,1.875 l 0.0137,0.0156 l 0.0137,0.0176 l 2.52734,2.76172 l 0.0156,0.0176 l 0.0137,0.0156 l 2.54297,2.74805 l 0.0137,0.0156 l 0.0156,0.0156 l 2.55859,2.73242 l 0.0156,0.0156 l 0.0137,0.0156 l 2.57617,2.7168 l 0.0156,0.0156 l 0.0137,0.0156 l 2.59179,2.70312 l 0.0156,0.0156 l 0.0137,0.0137 l 2.60742,2.6875 l 0.0156,0.0156 l 0.0156,0.0156 l 2.62305,2.66992 l 0.0156,0.0156 l 0.0137,0.0156 l 2.64063,2.6543 l 0.0137,0.0156 l 0.0156,0.0156 l 2.65625,2.63867 l 0.0137,0.0156 l 0.0156,0.0137 l 2.67188,2.625 l 0.0156,0.0137 l 0.0137,0.0156 l 2.6875,2.60743 l 0.0156,0.0156 l 0.0156,0.0137 l 2.70117,2.5918 l 0.0156,0.0156 l 0.0156,0.0137 l 2.71679,2.57617 l 0.0156,0.0156 l 0.0156,0.0137 l 2.38672,2.23437 l 9.89844,-10.57031 l -2.35352,-2.20508 l -0.0156,-0.0137 l -0.0156,-0.0156 l -2.65429,-2.51562 l -0.008,-0.006 l -2.66406,-2.55469 l -0.0195,-0.0195 l -0.0117,-0.0117 l -2.65429,-2.57617 l -2.63477,-2.58789 l -0.006,-0.006 l -2.59375,-2.57813 l -0.0156,-0.0156 l -0.0156,-0.0156 l -2.57812,-2.59376 l -0.006,-0.006 l -2.58594,-2.63282 l -2.57813,-2.65625 l -0.01,-0.0117 l -0.0195,-0.0195 l -2.55664,-2.66406 l -0.006,-0.006 l -2.51563,-2.6543 l -0.0137,-0.0156 l -0.0156,-0.0156 l -2.52734,-2.69921 l -0.002,-0.002 l -2.48438,-2.68554 l -0.0195,-0.0215 l -0.01,-0.01 l -2.46875,-2.69922 l -0.0117,-0.0137 l -0.0176,-0.0195 z m 975.74415,-76.96875 l -1.8242,2.78906 v 0.002 l -2.0449,3.08789 l -0.01,0.01 l -2.0703,3.08203 l -2.0625,3.03516 v 0.004 l -2.1015,3.05274 l -0.014,0.0195 l -0.012,0.0156 l -2.1211,3.04102 v 0.002 l -2.1406,3.03125 l -2.1348,2.98047 l -0.01,0.0117 l -0.018,0.0234 l -2.1504,2.96875 v 0.004 l -2.1894,2.98633 l -0.014,0.0176 l -0.014,0.0156 l -2.1855,2.94141 v 0.006 l -2.2265,2.95703 l -2.2735,2.98242 l -2.2558,2.92578 l -0.01,0.008 l -1.4121,1.80664 l 11.4121,8.91406 l 1.4375,-1.83984 l 0.014,-0.0176 l 0.014,-0.0176 l 2.289,-2.96875 l 0.014,-0.0156 l 0.014,-0.0176 l 2.2715,-2.98242 l 0.014,-0.0176 l 0.014,-0.0176 l 2.2539,-2.9961 l 0.014,-0.0176 l 0.014,-0.0176 l 2.2363,-3.01172 l 0.014,-0.0176 l 0.012,-0.0176 l 2.2207,-3.02343 l 0.014,-0.0176 l 0.012,-0.0176 l 2.2031,-3.03906 l 0.012,-0.0176 l 0.014,-0.0176 l 2.1836,-3.05078 l 0.012,-0.0176 l 0.014,-0.0176 l 2.166,-3.0664 l 0.012,-0.0176 l 0.014,-0.0176 l 2.1484,-3.08008 l 0.012,-0.0176 l 0.012,-0.0176 l 2.1309,-3.0918 l 0.012,-0.0195 l 0.014,-0.0176 l 2.1113,-3.10547 l 0.012,-0.0176 l 0.014,-0.0195 l 2.0938,-3.11914 l 0.012,-0.0176 l 0.012,-0.0176 l 2.0762,-3.13282 l 0.012,-0.0176 l 0.012,-0.0195 l 1.8262,-2.79101 z m -1040.54884,-8.84375 l -12.26172,7.70508 l 1.42774,2.26953 l 0.0117,0.0176 l 0.0117,0.0195 l 2.01953,3.17187 l 0.0117,0.0176 l 0.0117,0.0176 l 2.03906,3.16015 l 0.0117,0.0176 l 0.0117,0.0195 l 2.05664,3.14453 l 0.0117,0.0195 l 0.0137,0.0176 l 2.07422,3.13282 l 0.0117,0.0176 l 0.0137,0.0176 l 2.09375,3.11914 l 0.0117,0.0195 l 0.0117,0.0176 l 2.11328,3.10547 l 0.0117,0.0176 l 0.0117,0.0195 l 2.13086,3.0918 l 0.0117,0.0176 l 0.0117,0.0176 l 2.14844,3.08008 l 0.0137,0.0176 l 0.0117,0.0176 l 2.16602,3.0664 l 0.0137,0.0176 l 0.0117,0.0176 l 2.18359,3.05078 l 0.0137,0.0176 l 0.0137,0.0176 l 2.20117,3.03906 l 0.0117,0.0176 l 0.0137,0.0176 l 2.2207,3.02343 l 0.0117,0.0176 l 0.0137,0.0176 l 2.23633,3.01172 l 0.0137,0.0176 l 0.0137,0.0156 l 1.7793,2.36719 l 11.57031,-8.70898 l -1.77734,-2.36133 l -0.002,-0.004 l -2.18555,-2.94141 l -0.0137,-0.0156 l -0.0137,-0.0195 l -2.18946,-2.98438 l -0.004,-0.004 l -2.15039,-2.96875 l -0.0176,-0.0234 l -0.008,-0.0117 l -2.13477,-2.98242 l -2.14062,-3.0293 l -0.002,-0.004 l -2.12109,-3.03907 l -0.0117,-0.0176 l -0.0137,-0.0176 l -2.10156,-3.05274 l -0.004,-0.006 l -2.0625,-3.0332 l -2.07031,-3.08398 l -0.006,-0.008 l -2.04492,-3.08789 l -0.002,-0.002 l -2.05468,-3.14258 l -2.01172,-3.11719 l -0.004,-0.006 l -1.99609,-3.13476 z m 1091.08984,-86.05274 l -1.0664,2.50196 l -0.01,0.0176 l -0.01,0.0234 l -1.4765,3.40235 l -0.01,0.0117 l -1.5078,3.41993 v 0.008 l -1.5313,3.41406 l -0.01,0.0176 l -0.01,0.0234 l -1.5488,3.39843 l -0.01,0.0117 l -1.5547,3.35742 l -0.012,0.0234 l -0.01,0.0176 l -1.5761,3.34766 l -0.01,0.0176 l -0.01,0.0215 l -1.6094,3.36719 l -0.01,0.01 l -1.6153,3.32617 v 0.006 l -1.668,3.38282 v 0.004 l -1.6523,3.30274 l -0.01,0.0137 l -0.012,0.0254 l -1.6738,3.29101 v 0.01 l -1.709,3.31055 l -0.01,0.0195 l -0.01,0.0195 l -1.7129,3.26758 l -0.01,0.0137 l -0.012,0.0254 l -1.1387,2.14063 l 12.789,6.79687 l 1.1582,-2.17969 l 0.01,-0.0195 l 0.012,-0.0195 l 1.752,-3.3457 l 0.01,-0.0195 l 0.01,-0.0195 l 1.7344,-3.35742 l 0.01,-0.0215 l 0.01,-0.0195 l 1.7129,-3.36914 l 0.01,-0.0195 l 0.01,-0.0195 l 1.6934,-3.38086 l 0.01,-0.0195 l 0.01,-0.0215 l 1.6739,-3.39258 l 0.01,-0.0195 l 0.01,-0.0195 l 1.6523,-3.4043 l 0.01,-0.0215 l 0.01,-0.0195 l 1.6328,-3.41602 l 0.01,-0.0195 l 0.01,-0.0195 l 1.6133,-3.42774 l 0.01,-0.0195 l 0.01,-0.0215 l 1.5937,-3.43946 l 0.01,-0.0195 l 0.01,-0.0195 l 1.5723,-3.45117 l 0.01,-0.0195 l 0.01,-0.0195 l 1.5527,-3.46289 l 0.01,-0.0195 l 0.01,-0.0195 l 1.5313,-3.47265 l 0.01,-0.0215 l 0.01,-0.0195 l 1.5118,-3.48437 l 0.01,-0.0195 l 0.01,-0.0195 l 1.084,-2.54492 z m -1140.00195,-9.68945 l -13.423828,5.43555 l 0.746094,1.83984 l 0.0078,0.0215 l 0.0078,0.0195 l 1.449218,3.51757 l 0.0098,0.0195 l 0.0078,0.0215 l 1.470706,3.50391 l 0.008,0.0215 l 0.01,0.0195 l 1.49023,3.49609 l 0.008,0.0195 l 0.01,0.0195 l 1.51172,3.48437 l 0.008,0.0195 l 0.01,0.0215 l 1.53125,3.47265 l 0.01,0.0195 l 0.008,0.0195 l 1.55273,3.46289 l 0.01,0.0195 l 0.008,0.0195 l 1.57422,3.45117 l 0.008,0.0195 l 0.01,0.0195 l 1.59375,3.43946 l 0.008,0.0215 l 0.01,0.0195 l 1.61329,3.42774 l 0.01,0.0195 l 0.01,0.0195 l 1.63281,3.41602 l 0.01,0.0195 l 0.01,0.0215 l 1.65234,3.4043 l 0.01,0.0195 l 0.01,0.0195 l 1.67383,3.39258 l 0.01,0.0215 l 0.01,0.0195 l 1.69336,3.38086 l 0.01,0.0195 l 0.01,0.0195 l 1.4414,2.83593 l 12.91016,-6.5625 l -1.43555,-2.82226 l -0.006,-0.0137 l -1.6543,-3.30274 l -0.002,-0.004 l -1.66797,-3.38282 l -0.004,-0.006 l -1.61524,-3.32617 l -0.004,-0.01 l -1.62891,-3.40625 l -1.57422,-3.34766 l -0.008,-0.0176 l -0.0117,-0.0234 l -1.55664,-3.35742 l -0.004,-0.0117 l -1.54883,-3.39843 l -0.0117,-0.0234 l -0.008,-0.0176 l -1.53125,-3.41406 l -0.002,-0.008 l -1.50977,-3.41993 l -0.004,-0.0117 l -1.47656,-3.40235 l -1.47266,-3.45312 l -1.4707,-3.50586 l -1.41602,-3.4336 l -0.002,-0.004 z m 1173.19335,-92.54492 l -0.1113,0.49023 l -0.01,0.0215 l -0.01,0.0234 l -0.8614,3.68164 v 0.0176 l -0.8906,3.69922 v 0.0137 l -0.9141,3.69532 v 0.0176 l -0.9355,3.68164 v 0.0137 l -0.959,3.67773 l -0.01,0.0195 l -0.01,0.0234 l -0.9726,3.63867 v 0.0156 l -1.002,3.6582 v 0.01 l -1.0254,3.65235 v 0.006 l -1.0488,3.64844 v 0.0117 l -1.0684,3.63477 v 0.0176 l -0.01,0.0254 l -1.082,3.5918 v 0.0137 l -1.1231,3.65625 l -1.125,3.57226 v 0.0176 l -1.1641,3.61914 l 13.7872,4.42969 l 1.1679,-3.63672 l 0.01,-0.0215 l 0.01,-0.0215 l 1.1504,-3.6582 l 0.01,-0.0215 l 0.01,-0.0215 l 1.1289,-3.66992 l 0.01,-0.0215 l 0.01,-0.0215 l 1.1055,-3.67774 l 0.01,-0.0215 l 0.01,-0.0215 l 1.084,-3.68946 l 0.01,-0.0215 l 0.01,-0.0215 l 1.0625,-3.69726 l 0.01,-0.0215 l 0.01,-0.0215 l 1.041,-3.70703 l 0.01,-0.0215 l 0.01,-0.0215 l 1.0176,-3.7168 l 0.01,-0.0215 l 0.01,-0.0215 l 0.9961,-3.72656 l 0.01,-0.0215 l 0.01,-0.0215 l 0.9727,-3.73437 l 0.01,-0.0215 l 0.01,-0.0215 l 0.9511,-3.74414 l 0.01,-0.0215 l 0.01,-0.0215 l 0.9277,-3.75391 v -0.0215 l 0.01,-0.0215 l 0.9062,-3.76172 v -0.0215 l 0.01,-0.0215 l 0.8828,-3.77149 l 0.01,-0.0215 v -0.0215 l 0.123,-0.53515 z m -1204.638662,-10.28516 l -14.160157,3.03516 l 0.716797,3.34179 l 0.0059,0.0234 l 0.0039,0.0215 l 0.83789,3.78711 l 0.0039,0.0234 l 0.0059,0.0215 l 0.859375,3.77929 l 0.0059,0.0215 l 0.0039,0.0215 l 0.882812,3.77149 l 0.0059,0.0215 l 0.0059,0.0215 l 0.904297,3.76172 l 0.0059,0.0215 l 0.0059,0.0215 l 0.927734,3.75391 l 0.0059,0.0215 l 0.0059,0.0215 l 0.949218,3.74414 l 0.0059,0.0215 l 0.0059,0.0215 l 0.972656,3.73437 l 0.0059,0.0215 l 0.0059,0.0215 l 0.996094,3.72656 l 0.0059,0.0215 l 0.0059,0.0215 l 1.017578,3.7168 l 0.0059,0.0215 l 0.0078,0.0215 l 1.039062,3.70703 l 0.0059,0.0215 l 0.0059,0.0215 l 1.0625,3.69726 l 0.0078,0.0215 l 0.0059,0.0215 l 1.083984,3.68946 l 0.0078,0.0215 l 0.0059,0.0215 l 1.107422,3.67774 l 0.0059,0.0215 l 0.0059,0.0215 l 0.255859,0.83203 l 13.841797,-4.25781 l -0.251953,-0.81836 l -0.0039,-0.0137 l -1.080078,-3.5918 l -0.0078,-0.0254 l -0.0059,-0.0176 l -1.068359,-3.63477 l -0.0039,-0.0117 l -1.048828,-3.64844 v -0.006 l -1.017578,-3.61914 l -1.00586,-3.67383 l -0.990234,-3.70508 l -0.0059,-0.0195 l -0.949219,-3.64648 l -0.0059,-0.0215 l -0.0059,-0.0234 l -0.927734,-3.65429 l -0.925782,-3.74024 l -0.0039,-0.0137 l -0.890625,-3.70117 l -0.0039,-0.0156 l -0.861328,-3.68164 l -0.0059,-0.0234 l -0.0039,-0.0215 l -0.845703,-3.7168 l -0.0039,-0.0176 l -0.81836,-3.69922 l -0.0039,-0.0234 l -0.0059,-0.0215 z m 1219.488262,-96.24609 l -0.1836,3.41601 l -0.2363,3.91016 v 0.0156 l -0.2597,3.91016 v 0.0156 l -0.2832,3.90429 v 0.01 l -0.3125,3.94922 l -0.3301,3.86132 l -0.3594,3.89844 l -0.3867,3.92383 v 0.0137 l -0.4063,3.86719 v 0.0176 l -0.4277,3.85937 v 0.0195 l -0.4512,3.82422 v 0.0215 l -0.4766,3.84179 v 0.0176 l -0.5,3.83789 v 0.0117 l -0.4726,3.46485 l 14.3476,1.96093 l 0.4766,-3.47656 v -0.0234 v -0.0215 l 0.5078,-3.90039 v -0.0234 v -0.0234 l 0.4844,-3.9082 v -0.0215 v -0.0234 l 0.459,-3.91602 v -0.0215 v -0.0234 l 0.4355,-3.92187 v -0.0234 v -0.0234 l 0.4121,-3.92969 v -0.0234 v -0.0215 l 0.3867,-3.9375 v -0.0234 v -0.0215 l 0.3613,-3.94531 v -0.0234 v -0.0215 l 0.3399,-3.95313 v -0.0215 v -0.0234 l 0.3125,-3.95899 v -0.0215 v -0.0234 l 0.289,-3.96484 v -0.0234 v -0.0234 l 0.2637,-3.97265 v -0.0215 v -0.0234 l 0.2383,-3.97851 v -0.0234 v -0.0234 l 0.1856,-3.4375 z m -1232.513653,-10.47461 l -14.472656,0.5039 l 0.07227,2.07422 v 0.0234 l 0.002,0.0234 l 0.164063,3.99805 l 0.002,0.0234 v 0.0215 l 0.189453,3.99218 l 0.002,0.0234 v 0.0234 l 0.214844,3.98633 l 0.002,0.0215 l 0.002,0.0234 l 0.238281,3.97851 l 0.002,0.0234 l 0.002,0.0234 l 0.263672,3.9707 l 0.002,0.0234 l 0.002,0.0234 l 0.289062,3.96484 l 0.002,0.0234 l 0.002,0.0234 l 0.3125,3.95703 l 0.002,0.0234 l 0.002,0.0234 l 0.33789,3.95118 l 0.002,0.0234 l 0.0039,0.0215 l 0.361328,3.94531 l 0.002,0.0234 l 0.0039,0.0215 l 0.386719,3.9375 l 0.002,0.0234 l 0.002,0.0215 l 0.41211,3.93164 l 0.002,0.0215 l 0.0039,0.0234 l 0.435547,3.92187 l 0.002,0.0234 l 0.002,0.0234 l 0.460938,3.91406 l 0.002,0.0234 l 0.0039,0.0234 l 0.0918,0.75 l 14.373047,-1.77929 l -0.08789,-0.70703 l -0.002,-0.0215 l -0.0039,-0.0234 l -0.449219,-3.82422 l -0.002,-0.0195 l -0.429687,-3.85937 l -0.002,-0.0176 l -0.410156,-3.91211 l -0.376953,-3.8457 l -0.002,-0.01 l -0.357422,-3.89062 v -0.004 l -0.337891,-3.94141 v -0.006 l -0.310547,-3.90235 v -0.01 l -0.285156,-3.90625 v -0.0137 l -0.261718,-3.91015 v -0.0176 l -0.236329,-3.9082 l -0.210937,-3.91797 v -0.0215 l -0.1875,-3.92578 v -0.0156 l -0.16211,-3.9375 v -0.01 z m 1243.113253,-98.75 l -14.3711,1.78515 l 0.035,0.27149 l 0.2715,2.25391 v 0.0195 v 0.006 l 0.2597,2.22851 v 0.0254 l 0.252,2.23047 v 0.0254 l 0.2441,2.23047 v 0.01 v 0.0176 l 0.2382,2.25782 l 0.2266,2.23242 v 0.0273 l 0.2207,2.25977 l 0.2109,2.23437 l 0.2051,2.26367 v 0.0176 v 0.008 l 0.1934,2.23633 v 0.0273 l 0.1895,2.26562 l 0.1777,2.23828 v 0.008 v 0.0176 l 0.1719,2.26758 l 0.1621,2.24024 v 0.0254 v 0.002 l 0.1543,2.24219 v 0.0254 l 0.1465,2.26953 l 0.1367,2.24414 v 0.0156 v 0.01 l 0.1289,2.27149 l 0.1211,2.24609 l 0.1133,2.27148 v 0.008 v 0.0195 l 0.1035,2.27343 l 0.096,2.24805 v 0.0254 l 0.088,2.24805 v 0.0273 l 0.049,1.25 l 14.4727,-0.50781 l -0.045,-1.27344 v -0.0137 v -0.0137 l -0.09,-2.30274 v -0.0137 v -0.0117 l -0.098,-2.30273 v -0.0117 v -0.0137 l -0.1054,-2.30078 v -0.0137 v -0.0137 l -0.1152,-2.29882 v -0.0137 v -0.0137 l -0.123,-2.29687 v -0.0137 v -0.0137 l -0.1308,-2.29882 v -0.0117 v -0.0137 l -0.1387,-2.29687 v -0.0137 v -0.0137 l -0.1485,-2.29493 v -0.0137 v -0.0137 l -0.1582,-2.29492 v -0.0137 v -0.0137 l -0.166,-2.29296 v -0.0137 v -0.0137 l -0.1739,-2.29297 v -0.0137 v -0.0137 l -0.1836,-2.29102 v -0.0137 v -0.0137 l -0.1914,-2.29102 v -0.0137 v -0.0137 l -0.1992,-2.28906 v -0.0137 v -0.0137 l -0.209,-2.28906 v -0.0137 v -0.0117 l -0.2149,-2.28906 v -0.0137 v -0.0117 l -0.2246,-2.28711 v -0.0137 v -0.0137 l -0.2325,-2.28515 v -0.0137 v -0.0137 l -0.2402,-2.2832 v -0.0137 v -0.0137 l -0.2481,-2.2832 v -0.0137 v -0.0137 l -0.2578,-2.28125 v -0.0137 v -0.0137 l -0.2676,-2.28125 v -0.0137 v -0.0117 l -0.2754,-2.2793 v -0.0137 v -0.0137 z m -1251.947238,-10.62891 l -0.439453,3.21094 l -0.0039,0.0215 l -0.002,0.0234 l -0.507812,3.90039 l -0.0039,0.0234 l -0.002,0.0215 l -0.484375,3.90821 l -0.0039,0.0234 l -0.002,0.0234 l -0.460938,3.91406 l -0.002,0.0234 l -0.002,0.0234 l -0.435547,3.92187 l -0.0039,0.0234 l -0.002,0.0215 l -0.41211,3.93164 l -0.002,0.0215 l -0.002,0.0234 l -0.386719,3.9375 l -0.0039,0.0215 l -0.002,0.0234 l -0.361328,3.94531 l -0.0039,0.0215 l -0.002,0.0234 l -0.33789,3.95118 l -0.002,0.0234 l -0.002,0.0234 l -0.3125,3.95703 l -0.002,0.0234 l -0.002,0.0234 l -0.289062,3.96484 l -0.002,0.0234 l -0.002,0.0234 l -0.263672,3.9707 l -0.002,0.0234 l -0.002,0.0234 l -0.238281,3.97851 l -0.002,0.0234 l -0.002,0.0215 l -0.199219,3.70703 l 14.460938,0.7793 l 0.197265,-3.68164 l 0.236329,-3.91211 l 0.002,-0.0176 l 0.259765,-3.91015 v -0.0137 l 0.285156,-3.90625 v -0.01 l 0.310547,-3.90235 v -0.006 l 0.337891,-3.94141 v -0.004 l 0.357422,-3.89062 l 0.002,-0.01 l 0.376953,-3.8457 l 0.410156,-3.91602 l 0.002,-0.0137 l 0.429687,-3.85937 l 0.002,-0.0176 l 0.449219,-3.82617 l 0.0039,-0.0215 l 0.002,-0.0234 l 0.472656,-3.81835 l 0.002,-0.0176 l 0.5,-3.83789 l 0.002,-0.0117 l 0.4375,-3.19727 z m 1229.072238,-97.0039 l -13.8515,4.22851 l 0.4121,1.35156 l 0.01,0.0254 l 0.6465,2.14454 l 0.01,0.0254 l 0.6387,2.14843 v 0.008 l 0.01,0.0176 l 0.6289,2.14844 l 0.6308,2.17774 l 0.6211,2.17968 l 0.01,0.0156 v 0.01 l 0.6055,2.15625 l 0.6074,2.1836 l 0.01,0.0254 l 0.5898,2.16016 v 0.004 l 0.01,0.0215 l 0.5821,2.16211 l 0.582,2.1914 l 0.01,0.0176 v 0.008 l 0.5664,2.16602 l 0.01,0.0254 l 0.5586,2.16992 l 0.01,0.0254 l 0.5508,2.16992 l 0.01,0.0234 v 0.002 l 0.5489,2.19922 l 0.5351,2.17383 v 0.0234 v 0.002 l 0.5332,2.20313 l 0.5176,2.17773 l 0.01,0.0254 l 0.5097,2.18164 v 0.0117 v 0.0137 l 0.5078,2.20703 l 0.502,2.21094 l 0.4863,2.18555 v 0.0176 v 0.008 l 0.4786,2.1875 l 0.4765,2.21679 l 0.059,0.28711 l 14.168,-2.99218 l -0.061,-0.28516 v -0.0137 v -0.0117 l -0.4824,-2.24219 v -0.0137 v -0.0117 l -0.4903,-2.24023 v -0.0137 v -0.0117 l -0.4981,-2.23828 v -0.0137 v -0.0117 l -0.5059,-2.23632 v -0.0137 v -0.0117 l -0.5156,-2.23438 v -0.0137 v -0.0117 l -0.5215,-2.23242 v -0.0137 v -0.0117 l -0.5313,-2.23047 v -0.0137 v -0.0137 l -0.539,-2.22657 v -0.0137 v -0.0137 l -0.5468,-2.22461 v -0.0137 v -0.0137 l -0.5567,-2.22266 v -0.0137 v -0.0137 l -0.5645,-2.22071 v -0.0137 v -0.0137 l -0.5723,-2.21875 v -0.0137 v -0.0117 l -0.5801,-2.21875 v -0.0137 v -0.0117 l -0.5879,-2.2168 v -0.0117 v -0.0137 l -0.5957,-2.21289 v -0.0137 v -0.0137 l -0.6055,-2.21094 v -0.0117 v -0.0137 l -0.6133,-2.20899 v -0.0137 v -0.0117 l -0.6211,-2.20703 v -0.0137 v -0.0137 l -0.6289,-2.20508 v -0.0117 v -0.0137 l -0.6367,-2.20313 v -0.0117 v -0.0137 l -0.6446,-2.19922 v -0.0137 v -0.0117 l -0.6543,-2.19921 v -0.0117 v -0.0137 l -0.6621,-2.19531 v -0.0137 v -0.0117 z m -1204.458956,-10.25977 l -1.085938,3.38086 l -0.0078,0.0215 l -0.0059,0.0215 l -1.15039,3.6582 l -0.0078,0.0215 l -0.0059,0.0215 l -1.128906,3.66992 l -0.0059,0.0215 l -0.0059,0.0215 l -1.107422,3.67774 l -0.0059,0.0215 l -0.0078,0.0215 l -1.083984,3.68946 l -0.0059,0.0215 l -0.0078,0.0215 l -1.0625,3.69726 l -0.0059,0.0215 l -0.0059,0.0215 l -1.039062,3.70703 l -0.0078,0.0215 l -0.0059,0.0215 l -1.017578,3.7168 l -0.0059,0.0215 l -0.0059,0.0215 l -0.996094,3.72656 l -0.0059,0.0215 l -0.0059,0.0215 l -0.972656,3.73437 l -0.0059,0.0215 l -0.0059,0.0215 l -0.949218,3.74414 l -0.0059,0.0215 l -0.0059,0.0215 l -0.927734,3.75391 l -0.0059,0.0215 l -0.0059,0.0215 l -0.904297,3.76172 l -0.0059,0.0215 l -0.0059,0.0215 l -0.882812,3.77149 l -0.0039,0.0215 l -0.0059,0.0215 l -0.181641,0.79882 l 14.121094,3.21289 l 0.171875,-0.7539 l 0.0039,-0.0215 l 0.0059,-0.0234 l 0.861328,-3.68164 l 0.0039,-0.0156 l 0.890625,-3.70117 l 0.0039,-0.0117 l 0.925782,-3.74023 l 0.927734,-3.65625 l 0.0059,-0.0234 l 0.0059,-0.0215 l 0.949219,-3.64648 l 0.0039,-0.008 l 0.992187,-3.7168 l 1.00586,-3.67383 l 1.017578,-3.61914 l 0.0039,-0.0156 l 1.044922,-3.63868 l 0.0039,-0.0117 l 1.068359,-3.63477 l 0.0059,-0.0176 l 0.0078,-0.0254 l 1.080078,-3.5918 l 0.0039,-0.0137 l 1.111328,-3.61328 l 0.0039,-0.008 l 1.132813,-3.60742 l 0.0059,-0.0176 l 1.080078,-3.36328 z m 1163.238256,-91.76953 l -12.914,6.55078 l 1.0312,2.03516 v 0.01 l 0.01,0.0137 l 1.0137,2.01368 l 0.01,0.0137 l 0.01,0.0117 l 1.0156,2.04101 l 0.9961,2.01953 l 1.002,2.04883 l 0.012,0.0234 l 0.9922,2.05078 l 0.9746,2.03125 l 0.9766,2.05664 l 0.01,0.0117 l 0.01,0.0137 l 0.9707,2.06055 l 0.9512,2.03906 l 0.01,0.0215 v 0.004 l 0.9434,2.04297 l 0.01,0.0215 v 0.002 l 0.9453,2.07031 l 0.9278,2.04883 l 0.012,0.0254 l 0.9199,2.05078 l 0.012,0.0254 l 0.9219,2.08008 l 0.9043,2.05664 l 0.01,0.0176 v 0.008 l 0.9063,2.08594 l 0.8886,2.06445 l 0.8926,2.0918 v 0.004 l 0.01,0.0195 l 0.873,2.07031 l 0.877,2.09765 l 0.8672,2.09961 l 0.01,0.0254 l 0.8614,2.10352 l 0.5468,1.35547 l 13.4239,-5.43164 l -0.5586,-1.38086 v -0.0117 l -0.01,-0.0117 l -0.8691,-2.12891 l -0.01,-0.0117 l -0.01,-0.0117 l -0.8769,-2.12696 l -0.01,-0.0117 v -0.0117 l -0.8867,-2.12305 l -0.01,-0.0117 v -0.0117 l -0.8945,-2.11914 l -0.01,-0.0137 v -0.0117 l -0.9023,-2.11523 l -0.01,-0.0137 l -0.01,-0.0117 l -0.9102,-2.11329 v -0.0117 l -0.01,-0.0117 l -0.918,-2.11133 l -0.01,-0.0117 v -0.0117 l -0.9258,-2.10742 l -0.01,-0.0117 l -0.01,-0.0137 l -0.9336,-2.10352 l -0.01,-0.0117 l -0.01,-0.0117 l -0.9414,-2.10157 l -0.01,-0.0117 v -0.0117 l -0.9492,-2.09961 l -0.01,-0.0117 l -0.01,-0.0117 l -0.957,-2.09375 l -0.01,-0.0137 l -0.01,-0.0117 l -0.9648,-2.0918 l -0.01,-0.0117 l -0.01,-0.0117 l -0.9727,-2.08789 l -0.01,-0.0137 l -0.01,-0.0117 l -0.9824,-2.08398 l -0.01,-0.0137 v -0.0117 l -0.9902,-2.08203 l -0.01,-0.0117 l -0.01,-0.0117 l -0.9961,-2.07813 l -0.01,-0.0117 l -0.01,-0.0137 l -1.0059,-2.07422 v -0.0117 l -0.01,-0.0117 l -1.0117,-2.07227 l -0.01,-0.0117 l -0.01,-0.0137 l -1.0195,-2.06836 l -0.01,-0.0117 l -0.01,-0.0117 l -1.0273,-2.06445 l -0.01,-0.0137 l -0.01,-0.0117 l -1.0371,-2.06055 l -0.01,-0.0137 l -0.01,-0.0117 z m -1120.23826,-9.55469 l -1.0332,1.94141 l -0.01,0.0195 l -0.01,0.0195 l -1.75391,3.3457 l -0.01,0.0195 l -0.01,0.0195 l -1.73242,3.35937 l -0.01,0.0195 l -0.0117,0.0195 l -1.71289,3.36914 l -0.01,0.0195 l -0.01,0.0195 l -1.69336,3.38086 l -0.01,0.0195 l -0.01,0.0215 l -1.67383,3.39258 l -0.01,0.0195 l -0.01,0.0195 l -1.65234,3.4043 l -0.01,0.0215 l -0.01,0.0195 l -1.63281,3.41602 l -0.01,0.0195 l -0.01,0.0195 l -1.61329,3.42774 l -0.01,0.0215 l -0.008,0.0195 l -1.59375,3.43946 l -0.01,0.0195 l -0.008,0.0195 l -1.57422,3.45117 l -0.008,0.0195 l -0.01,0.0195 l -1.55273,3.46289 l -0.008,0.0195 l -0.01,0.0195 l -1.53125,3.47265 l -0.01,0.0215 l -0.008,0.0195 l -1.51172,3.48437 l -0.01,0.0195 l -0.008,0.0215 l -1.1914,2.78906 l 13.32031,5.68359 l 1.18945,-2.7871 l 0.002,-0.004 l 1.48828,-3.42969 l 0.006,-0.0137 l 1.49609,-3.39063 l 0.01,-0.0234 l 0.008,-0.0176 l 1.51562,-3.38086 l 0.008,-0.0176 l 0.0117,-0.0234 l 1.54883,-3.39843 l 0.004,-0.0117 l 1.55664,-3.35742 l 0.0117,-0.0234 l 0.008,-0.0176 l 1.57422,-3.34766 l 1.62891,-3.40625 l 0.006,-0.01 l 1.61329,-3.32617 l 0.004,-0.006 l 1.66992,-3.38672 l 1.6543,-3.30274 l 0.006,-0.0137 l 1.6875,-3.3164 l 0.0117,-0.0254 l 0.008,-0.0137 l 1.69336,-3.28125 l 0.01,-0.0195 l 0.01,-0.0195 l 1.72852,-3.29883 l 0.004,-0.008 l 1.01172,-1.90234 z m 59.97071,-92.275389 l -1.27344,1.626953 l -0.0117,0.01758 l -0.0137,0.01758 l -2.29102,2.96875 l -0.0117,0.01758 l -0.0137,0.01563 l -2.27343,2.984375 l -0.0137,0.01563 l -0.0117,0.01758 l -2.25586,2.998047 l -0.0137,0.01563 l -0.0117,0.01758 l -2.23828,3.011719 l -0.0117,0.01758 l -0.0137,0.01758 l -2.2207,3.023438 l -0.0117,0.01758 l -0.0137,0.01758 l -2.20117,3.039062 l -0.0137,0.01758 l -0.0117,0.01758 l -2.1836,3.050781 l -0.0137,0.01758 l -0.0117,0.01758 l -2.16797,3.066406 l -0.0117,0.01758 l -0.0117,0.01758 l -2.14844,3.080078 l -0.0137,0.01758 l -0.0117,0.01758 l -2.13086,3.09375 l -0.0117,0.01758 l -0.0117,0.01758 l -2.11133,3.105469 l -0.0137,0.01758 l -0.0117,0.01953 l -2.09375,3.11914 l -0.0117,0.01758 l -0.0117,0.01758 l -2.07617,3.132813 l -0.0117,0.01953 l -0.0117,0.01758 l -1.97461,3.017578 l 12.12304,7.92579 l 1.94922,-2.98243 l 0.008,-0.0137 l 0.0156,-0.0215 l 2.04492,-3.087897 l 0.006,-0.0078 l 2.04492,-3.048828 l 2.08789,-3.070312 l 0.004,-0.0039 l 2.10156,-3.052735 l 2.12305,-3.042969 l 0.01,-0.01172 l 0.0156,-0.02344 l 2.13476,-3.021484 l 0.006,-0.0098 l 2.13477,-2.980469 l 2.19531,-3.029297 l 0.006,-0.0098 l 2.16797,-2.953125 l 0.0137,-0.01953 l 0.0137,-0.01563 l 2.18555,-2.941407 l 2.22852,-2.96289 l 2.27343,-2.982422 l 2.23633,-2.900391 l 0.004,-0.0039 l 1.26758,-1.623047 z m 75.01953,-80.50586 l -1.77539,1.603516 l -0.0156,0.01563 l -0.0156,0.01367 l -2.76367,2.527344 l -0.0156,0.01367 l -0.0156,0.01563 l -2.74805,2.542969 l -0.0156,0.01367 l -0.0176,0.01563 l -2.73243,2.558594 l -0.0156,0.01563 l -0.0156,0.01367 l -2.71679,2.576171 l -0.0156,0.01367 l -0.0156,0.01563 l -2.70117,2.591797 l -0.0156,0.01367 l -0.0156,0.01563 l -2.6875,2.607422 l -0.0137,0.01563 l -0.0156,0.01367 l -2.67188,2.6249999 l -0.0156,0.013672 l -0.0137,0.015625 l -2.65625,2.6386718 l -0.0156,0.015625 l -0.0137,0.015625 l -2.64063,2.6542969 l -0.0137,0.015625 l -0.0156,0.015625 l -2.62305,2.6699219 l -0.0156,0.015625 l -0.0156,0.015625 l -2.60742,2.6875 l -0.0137,0.015625 l -0.0156,0.015625 l -2.59179,2.7011718 l -0.0137,0.015625 l -0.0156,0.015625 l -2.57617,2.7167969 l -0.0137,0.015625 l -0.0156,0.015625 l -2.32617,2.484375 l 10.57031,9.8984378 l 2.29687,-2.451172 l 0.0156,-0.01758 l 0.0137,-0.01563 l 2.51563,-2.654297 l 0.006,-0.0059 l 2.55664,-2.664062 l 2.60742,-2.6855469 l 2.58594,-2.6347656 l 0.006,-0.00586 l 2.57812,-2.59375 l 0.0156,-0.015625 l 0.0156,-0.015625 l 2.62305,-2.6054688 l 0.002,-0.00195 l 2.60938,-2.5625 l 2.65429,-2.578125 l 0.0117,-0.011719 l 0.0195,-0.017578 l 2.66406,-2.5566406 l 0.006,-0.00586 l 2.65625,-2.515625 l 0.0156,-0.013672 l 0.0156,-0.015625 l 2.69727,-2.5273431 l 0.004,-0.002 l 2.68359,-2.484374 l 2.73242,-2.498047 l 0.0137,-0.01172 l 0.0176,-0.01758 l 1.74219,-1.574219 z m 766.21482,-60.767578 l -7.8594,12.162109 l 0.336,0.21875 l 7.8613,-12.162109 z m -678.41404,-5.570312 l -2.15625,1.355468 l -0.0176,0.01172 l -0.0176,0.01172 l -3.17187,2.019531 l -0.0195,0.01172 l -0.0176,0.01172 l -3.16016,2.039062 l -0.0176,0.01172 l -0.0176,0.01172 l -3.14649,2.05664 l -0.0176,0.01172 l -0.0176,0.01172 l -3.13282,2.076172 l -0.0195,0.01172 l -0.0176,0.01172 l -3.11914,2.09375 l -0.0176,0.01367 l -0.0195,0.01172 l -3.10546,2.111328 l -0.0176,0.01367 l -0.0176,0.01172 l -3.09375,2.13086 l -0.0176,0.01172 l -0.0176,0.01172 l -3.08008,2.148438 l -0.0176,0.01367 l -0.0176,0.01172 l -3.06446,2.166015 l -0.0176,0.01367 l -0.0176,0.01172 l -3.05274,2.183594 l -0.0176,0.01367 l -0.0176,0.01172 l -3.03906,2.203125 l -0.0176,0.01172 l -0.0176,0.01367 l -3.02344,2.21875 l -0.0176,0.01367 l -0.0176,0.01367 l -3.00977,2.236328 l -0.0176,0.01367 l -0.0176,0.01367 l -2.47461,1.861329 l 8.70899,11.570312 l 2.46875,-1.859375 l 0.004,-0.002 l 2.9414,-2.1875 l 0.0176,-0.01172 l 0.0176,-0.01367 l 2.98437,-2.191406 l 0.006,-0.002 l 2.9668,-2.152344 l 0.0254,-0.01563 l 0.01,-0.0078 l 2.98243,-2.134766 l 3.02929,-2.140625 l 0.004,-0.002 l 3.04102,-2.121094 l 0.0156,-0.01172 l 0.0195,-0.01367 l 3.05078,-2.101562 l 0.006,-0.0039 l 3.03321,-2.0625 l 3.08398,-2.070313 l 0.01,-0.0059 l 3.08593,-2.046875 l 0.004,-0.002 l 3.14258,-2.054688 l 3.11523,-2.009765 l 0.006,-0.0039 l 3.13672,-1.996093 l 2.11914,-1.332032 z m 581.23242,-46.023441 l -5.67187,13.32617 l 2.18554,0.92969 h 0.002 l 0.0273,0.0117 l 2.51563,1.08399 l 2.53906,1.10937 l 2.53515,1.11914 l 0.0312,0.0137 l 2.5,1.11719 l 0.002,0.002 l 0.0273,0.0117 l 2.49805,1.12891 l 0.0195,0.01 l 0.01,0.004 l 2.49024,1.14063 l 0.0137,0.006 l 0.0176,0.008 l 2.48633,1.15234 l 0.01,0.004 l 0.0195,0.01 l 2.48243,1.16407 l 0.002,0.002 l 0.0273,0.0117 l 2.47657,1.17578 l 0.0195,0.01 l 0.01,0.004 l 2.47266,1.1875 l 2.49805,1.21094 l 0.0293,0.0137 l 2.49024,1.22461 l 2.45898,1.21875 l 0.0176,0.01 l 0.0117,0.006 l 2.45117,1.23047 l 0.0137,0.006 l 0.0156,0.01 l 2.44726,1.24219 l 0.0293,0.0137 l 2.47266,1.26953 l 2.43554,1.26562 l 0.0176,0.008 l 0.0117,0.008 l 2.43164,1.27539 l 0.0293,0.0156 l 1.3164,0.69922 l 6.78906,-12.79297 l -1.3457,-0.71289 l -0.0156,-0.008 l -0.0137,-0.008 l -2.49023,-1.30664 l -0.0137,-0.008 l -0.0137,-0.008 l -2.4961,-1.29492 l -0.0137,-0.008 l -0.0156,-0.008 l -2.5,-1.28321 l -0.0137,-0.008 l -0.0156,-0.008 l -2.50586,-1.27149 l -0.0137,-0.008 l -0.0156,-0.008 l -2.50976,-1.25977 l -0.0156,-0.008 l -0.0137,-0.008 l -2.51562,-1.24805 l -0.0156,-0.008 l -0.0137,-0.008 l -2.52149,-1.23633 l -0.0137,-0.008 l -0.0156,-0.008 l -2.52539,-1.22461 l -0.0156,-0.008 l -0.0137,-0.008 l -2.53125,-1.21289 l -0.0156,-0.008 l -0.0137,-0.008 l -2.53711,-1.20117 l -0.0137,-0.008 l -0.0156,-0.008 l -2.54102,-1.18946 l -0.0156,-0.008 l -0.0137,-0.008 l -2.54687,-1.17774 l -0.0137,-0.008 l -0.0156,-0.006 l -2.55078,-1.16797 l -0.0137,-0.008 l -0.0156,-0.006 l -2.55664,-1.15625 l -0.0137,-0.008 l -0.0156,-0.006 l -2.56055,-1.14453 l -0.0137,-0.008 l -0.0156,-0.006 l -2.5664,-1.13282 l -0.0137,-0.006 l -0.0156,-0.008 l -2.57031,-1.12109 l -0.0137,-0.006 l -0.0156,-0.006 l -2.57422,-1.11133 l -0.0156,-0.006 l -0.0137,-0.006 z m -483.23242,-4.07031 l -1.71484,0.69336 l -0.0195,0.008 l -0.0215,0.01 l -3.51562,1.44922 l -0.0215,0.008 l -0.0195,0.01 l -3.50586,1.46874 l -0.0215,0.01 l -0.0195,0.008 l -3.49414,1.49024 l -0.0215,0.01 l -0.0195,0.008 l -3.48438,1.51171 l -0.0195,0.008 l -0.0195,0.01 l -3.47266,1.53125 l -0.0215,0.01 l -0.0195,0.008 l -3.46094,1.55274 l -0.0215,0.01 l -0.0195,0.008 l -3.45118,1.57422 l -0.0195,0.008 l -0.0195,0.01 l -3.43945,1.59375 l -0.0195,0.008 l -0.0195,0.01 l -3.42774,1.61328 l -0.0215,0.01 l -0.0195,0.01 l -3.41602,1.63281 l -0.0195,0.01 l -0.0195,0.01 l -3.4043,1.65235 l -0.0215,0.01 l -0.0195,0.01 l -3.39258,1.67383 l -0.0195,0.01 l -0.0195,0.01 l -3.38281,1.69336 l -0.0195,0.01 l -0.0195,0.01 l -2.95508,1.50391 l 6.5625,12.91015 l 2.91602,-1.48242 l 0.0273,-0.0137 l 0.0117,-0.008 l 3.30273,-1.65235 l 0.004,-0.004 l 3.38281,-1.66797 l 0.008,-0.002 l 3.32422,-1.61523 l 0.01,-0.006 l 3.36719,-1.60937 l 0.0215,-0.01 l 0.0176,-0.008 l 3.34766,-1.57618 l 0.0176,-0.008 l 0.0234,-0.0117 l 3.35938,-1.55468 l 0.0117,-0.006 l 3.39844,-1.54883 l 0.0215,-0.01 l 0.0176,-0.008 l 3.41407,-1.53125 l 0.008,-0.004 l 3.41992,-1.50781 l 0.0117,-0.006 l 3.40234,-1.47656 l 0.0234,-0.01 l 0.0176,-0.008 l 3.44727,-1.4707 l 0.006,-0.002 l 3.42383,-1.43555 l 0.01,-0.004 l 3.46484,-1.42773 l 0.006,-0.002 l 1.71094,-0.69336 z m 378.54297,-29.86914 l -3.26563,14.10742 l 2.05274,0.47656 l 2.69336,0.63477 l 0.0234,0.006 l 0.008,0.002 l 2.6582,0.64063 l 0.0312,0.008 l 2.65625,0.65234 l 0.0156,0.004 l 0.0156,0.004 l 2.65234,0.66406 l 2.68164,0.68359 l 0.006,0.002 l 0.0254,0.006 l 2.64649,0.68946 l 0.0293,0.008 h 0.002 l 2.64258,0.69922 l 0.0117,0.004 l 0.0195,0.004 l 2.67187,0.7207 l 2.66602,0.73243 l 2.63476,0.73437 l 0.0254,0.008 l 0.006,0.002 l 2.66016,0.75586 l 2.62695,0.75781 l 0.0176,0.006 l 0.0137,0.004 l 2.6543,0.7793 l 2.61914,0.7832 l 0.008,0.002 l 0.0234,0.008 l 2.61523,0.79297 l 2.64454,0.81445 l 0.0156,0.006 l 0.0137,0.004 l 2.60938,0.81836 l 2.63672,0.83789 l 0.006,0.004 l 0.0254,0.008 l 1.8164,0.58593 l 4.45508,-13.77929 l -1.84961,-0.59766 l -0.0156,-0.006 l -0.0156,-0.004 l -2.66601,-0.84961 l -0.0156,-0.004 l -0.0156,-0.006 l -2.66993,-0.83594 l -0.0156,-0.006 l -0.0156,-0.004 l -2.67578,-0.82422 l -0.0137,-0.006 l -0.0156,-0.004 l -2.67969,-0.81445 l -0.0156,-0.004 l -0.0156,-0.004 l -2.68164,-0.80078 l -0.0137,-0.006 l -0.0156,-0.004 l -2.68555,-0.78906 l -0.0156,-0.004 l -0.0156,-0.006 l -2.68945,-0.77539 l -0.0156,-0.006 l -0.0156,-0.004 l -2.69141,-0.76368 l -0.0156,-0.006 l -0.0156,-0.004 l -2.69726,-0.75195 l -0.0156,-0.006 l -0.0156,-0.004 l -2.69727,-0.74023 l -0.0156,-0.004 l -0.0176,-0.004 l -2.70117,-0.72851 l -0.0156,-0.004 l -0.0156,-0.006 l -2.70703,-0.71484 l -0.0156,-0.004 l -0.0156,-0.004 l -2.70899,-0.70508 l -0.0156,-0.004 l -0.0156,-0.004 l -2.71289,-0.69336 l -0.0156,-0.004 l -0.0156,-0.004 l -2.71484,-0.67968 l -0.0156,-0.004 l -0.0156,-0.004 l -2.71875,-0.66797 l -0.0156,-0.004 l -0.0156,-0.004 l -2.72266,-0.6543 l -0.0156,-0.004 l -0.0156,-0.004 l -2.72461,-0.64453 l -0.0156,-0.002 l -0.0156,-0.004 z m -273.31836,-2.33594 l -3.21094,0.6875 l -0.0215,0.006 l -0.0234,0.004 l -3.78711,0.83789 l -0.0215,0.004 l -0.0234,0.006 l -3.77735,0.85938 l -0.0234,0.006 l -0.0215,0.004 l -3.76953,0.88282 l -0.0234,0.006 l -0.0215,0.004 l -3.76172,0.90625 l -0.0215,0.006 l -0.0215,0.004 l -3.75195,0.92969 l -0.0234,0.004 l -0.0215,0.006 l -3.74219,0.95117 l -0.0234,0.006 l -0.0215,0.006 l -3.73438,0.97266 l -0.0215,0.006 l -0.0215,0.006 l -3.72656,0.99609 l -0.0215,0.006 l -0.0215,0.006 l -3.71679,1.01758 l -0.0215,0.006 l -0.0215,0.006 l -3.70703,1.04101 l -0.0215,0.006 l -0.0215,0.006 l -3.69727,1.0625 l -0.0215,0.006 l -0.0215,0.008 l -3.6875,1.08399 l -0.0215,0.006 l -0.0215,0.008 l -3.67968,1.10547 l -0.0215,0.008 l -0.0215,0.006 l -0.96094,0.29492 l 4.25781,13.8418 l 0.94727,-0.29102 l 0.0137,-0.004 l 3.59375,-1.08203 l 0.0234,-0.006 l 0.0195,-0.006 l 3.63281,-1.06836 l 0.0117,-0.004 l 3.64844,-1.04883 l 0.006,-0.002 l 3.65429,-1.02539 l 0.01,-0.002 l 3.6582,-1.00196 l 0.0137,-0.004 l 3.63868,-0.97266 l 0.0254,-0.006 l 0.0176,-0.006 l 3.67774,-0.95703 l 0.0137,-0.004 l 3.68164,-0.93554 l 0.0176,-0.004 l 3.69727,-0.91406 l 0.0117,-0.004 l 3.70118,-0.89062 l 0.0176,-0.004 l 3.68164,-0.86133 l 0.0215,-0.006 l 0.0215,-0.004 l 3.71875,-0.84766 l 0.0176,-0.002 l 3.69727,-0.81836 l 0.0234,-0.006 l 0.0215,-0.004 l 3.16601,-0.67968 z m 164.32226,-12.91406 l -0.75195,14.46289 l 1.56055,0.0801 l 2.8125,0.16015 l 2.74609,0.16797 h 0.0215 l 0.0117,0.002 l 2.74415,0.17968 l 2.77539,0.19532 l 0.0137,0.002 l 0.0195,0.002 l 2.77344,0.20703 l 2.77343,0.21875 l 2.73829,0.23047 l 2.76757,0.24414 l 2.76758,0.25586 l 0.0234,0.002 l 0.01,0.002 l 2.76562,0.26953 l 2.73047,0.2793 h 0.0156 l 0.0176,0.002 l 2.72852,0.29102 l 2.75976,0.30664 l 0.0137,0.002 l 0.0195,0.002 l 2.72656,0.31641 l 2.78711,0.33398 l 2.72265,0.33985 l 2.75196,0.35547 l 2.75,0.36914 l 0.0215,0.002 l 0.01,0.002 l 2.20312,0.30664 l 1.98633,-14.34375 l -2.23437,-0.31054 l -0.0176,-0.002 l -0.0156,-0.002 l -2.78125,-0.37305 l -0.0156,-0.002 l -0.0176,-0.002 l -2.7832,-0.35938 l -0.0176,-0.002 l -0.0156,-0.002 l -2.78515,-0.34766 l -0.0176,-0.002 l -0.0156,-0.002 l -2.78906,-0.33593 l -0.0156,-0.002 l -0.0156,-0.002 l -2.79101,-0.32227 l -0.0156,-0.002 l -0.0176,-0.002 l -2.79101,-0.31055 l -0.0156,-0.002 l -0.0176,-0.002 l -2.79297,-0.29688 l -0.0176,-0.002 l -0.0156,-0.002 l -2.79687,-0.28515 l -0.0156,-0.002 l -0.0156,-0.002 l -2.79883,-0.27148 l -0.0156,-0.002 l -0.0156,-0.002 l -2.80078,-0.25976 l -0.0156,-0.002 h -0.0176 l -2.80078,-0.24804 l -0.0156,-0.002 l -0.0176,-0.002 l -2.80273,-0.23438 l -0.0156,-0.002 h -0.0176 l -2.80469,-0.22266 l -0.0156,-0.002 h -0.0156 l -2.80665,-0.21094 h -0.0176 l -0.0156,-0.002 l -2.80859,-0.19726 l -0.0156,-0.002 h -0.0176 l -2.80859,-0.18554 l -0.0176,-0.002 h -0.0156 l -2.81055,-0.17187 l -0.0176,-0.002 h -0.0156 l -2.8125,-0.16015 l -0.0156,-0.002 h -0.0176 z m -55.07226,-0.45117 l -1.94141,0.0664 l -0.0234,0.002 l -0.0215,0.002 l -4,0.16406 l -0.0215,0.002 h -0.0234 l -3.99219,0.1914 h -0.0234 l -0.0234,0.002 l -3.98438,0.21484 l -0.0234,0.002 h -0.0234 l -3.97852,0.24024 l -0.0234,0.002 h -0.0215 l -3.97266,0.26562 l -0.0234,0.002 h -0.0215 l -3.9668,0.28906 l -0.0215,0.002 l -0.0234,0.002 l -3.95898,0.31445 l -0.0234,0.002 l -0.0215,0.002 l -3.95313,0.33789 l -0.0215,0.002 l -0.0234,0.002 l -3.94336,0.36328 l -0.0234,0.002 l -0.0234,0.002 l -3.9375,0.38867 l -0.0215,0.002 l -0.0234,0.002 l -3.92968,0.41211 l -0.0234,0.002 l -0.0234,0.002 l -3.92188,0.4375 l -0.0234,0.002 l -0.0215,0.002 l -3.91601,0.46094 l -0.0234,0.002 l -0.0215,0.004 l -0.88477,0.10937 l 1.7793,14.36914 l 0.86328,-0.10742 l 0.0215,-0.002 l 3.82617,-0.44922 l 0.0176,-0.004 l 3.85938,-0.42773 l 0.0176,-0.002 l 3.86718,-0.40625 h 0.0137 l 3.92383,-0.38672 l 3.89844,-0.35743 l 3.86133,-0.33203 l 3.94922,-0.3125 l 0.01,-0.002 l 3.9043,-0.2832 l 0.0156,-0.002 l 3.91016,-0.25976 l 0.0156,-0.002 l 3.91015,-0.23438 l 3.96289,-0.21484 l 3.90039,-0.18555 h 0.0156 l 3.98437,-0.16406 l 1.89454,-0.0645 z" /></g></g></svg>